<?xml version="1.0"?><svg width="1000" height="150" xmlns="http://www.w3.org/2000/svg">

 <g>
  <title>Layer 1</title>
  <g display="inline" id="layer17">
   <path fill="#cccccc" fill-rule="evenodd" id="path4607" d="m999.615295,127.088829l-0.146667,-16.780876l-6.842651,0l0,15.966194l-3.732361,0l0,-19.69857l-6.427917,0l0,14.722122l-5.183777,0l0,-11.611816l-5.598633,0l0,10.989738l-5.183899,0l0,-14.722099c0,0 -4.35437,-11.611801 -7.879272,0c0,4.354431 0,14.722099 0,14.722099l-1.036926,0l0,-24.675064l-6.972595,4.02565l0,21.997215l-2.980408,0l0,-21.875801l-1.658691,0l0,-3.732361l-5.0802,0l0,3.110313l-2.48822,0l0,21.979454l-2.695679,0l0,-17.314011l-1.451477,-0.103668l-1.555115,-10.88607l-1.658813,10.989738l-2.073364,0l0,17.314011l-2.177429,-0.207329l0,-23.016251l-4.172302,-7.226746l-3.810791,0.073044l-4.540283,7.864052l0,22.927933l-4.894226,0l0,-26.95594l-7.361084,0l0,26.852257l-1.762512,0l0,-24.571365l-5.805908,0l0,23.534637l-0.829285,0l0,-20.735367l-5.444885,1.458908l0,19.380089l-6.063293,0l0,-23.741959l-1.910156,-3.30835l-1.984863,3.437889l0,23.301407l-5.643311,0l0,-24.571381l-6.220703,0l0,24.15667l-1.24408,0l0,-26.748604l-10.056519,0l0,26.230217l-4.043396,0l0,-14.722092l-5.702209,0l0,13.996368l-0.829407,0l0,-26.126549l-6.739014,0l0,26.333885l-1.866272,0l0,-24.156662l-8.19043,0l0,24.571358l-3.835999,0l0,-24.342979l-2.439758,0l0,-6.597946l-4.325317,0l0,6.597946l-3.152405,0l0,24.485718l-4.105286,0l0,-16.42157l-6.9646,0l0,16.494881l-6.524597,0l0,-22.506325c0,0 -3.812134,-4.691879 -8.650635,-0.513184c0.073425,2.272629 0,23.239449 0,23.239449l-1.612793,0l0,-19.720535l-4.985168,0l-5.037903,18.801758l-2.586426,0l0,-8.098419l-1.099609,-2.712502l-0.953064,2.712502l-5.425049,0l-0.623047,-2.465073l-0.962219,2.45591l0,8.036674l-3.656311,0l0,-12.426155l-4.54541,0l0,12.169563l-2.089172,0l0,-21.113449l-6.451416,0l0,20.820206l-4.545105,0l0,-23.899239l-7.18457,0l0,5.131729l-2.639221,0l0,-5.864838l-6.451172,0l0,24.485733l-1.759521,0l0,-14.95536l-4.252014,0l0,14.515488l-2.932495,0l0,-19.207359l-4.838379,0l0,18.914116l-4.838501,0l0,-23.312759l-5.571594,0l0.293274,32.69651l296.684509,0.153191z"/>
   <path fill="#b3b3b3" fill-rule="evenodd" id="path4611" d="m570.862976,130.348007l0.147034,-16.781006l6.843018,0l0,15.966003l3.731995,0l0,-19.698006l6.427979,0l0,14.722l5.184021,0l0,-11.612l5.597961,0l0,10.989998l5.184021,0l0,-14.722c0,0 4.35498,-11.612198 7.880005,0c0,4.354004 0,14.722 0,14.722l1.036987,0l0,-24.6754l6.971985,4.025406l0,21.996994l2.980042,0l0,-21.875l1.658997,0l0,-3.732697l5.079956,0l0,3.110703l2.489014,0l0,21.978996l2.695007,0l0,-17.314003l1.452026,-0.103996l1.554993,-10.885704l1.658997,10.9897l2.072998,0l0,17.314003l2.177979,-0.207001l0,-23.016998l4.171997,-7.226303l3.809998,0.073105l4.541016,7.864197l0,22.928001l4.893982,0l0,-26.9562l7.361023,0l0,26.852196l1.763,0l0,-24.570999l5.805969,0l0,23.534004l0.829041,0l0,-20.735001l5.445007,1.459l0,19.379997l6.062988,0l0,-23.741997l1.909973,-3.308304l1.985046,3.438301l0,23.301003l5.642944,0l0,-24.571404l6.221008,0l0,24.156403l1.244019,0l0,-26.748299l10.057007,0l0,26.230301l4.042969,0l0,-14.722l5.702026,0l0,13.995995l0.830017,0l0,-26.126396l6.738953,0l0,26.333397l1.866028,0l0,-24.156197l8.190002,0l0,24.571198l3.835999,0l0,-24.342796l2.440002,0l0,-6.598l4.325012,0l0,6.598l3.153015,0l0,24.485794l4.10498,0l0,-16.421997l6.964966,0l0,16.495003l6.524048,0l0,-22.506004c0,0 3.811951,-4.692001 8.651001,-0.513298c-0.072998,2.272301 0,23.239304 0,23.239304l1.612976,0l0,-19.720001l4.984985,0l5.038025,18.800995l2.585999,0l0,-8.098l1.099976,-2.712997l0.953003,2.712997l5.424988,0l0.623047,-2.464996l0.961975,2.456001l0,8.036995l3.656006,0l0,-12.426994l4.546021,0l0,12.169998l2.088989,0l0,-21.113998l6.450989,0l0,20.820999l4.546021,0l0,-23.899605l7.18396,0l0,5.131599l2.639038,0l0,-5.8647l6.451965,0l0,24.485703l1.759033,0l0,-14.955002l4.251953,0l0,14.514999l2.933044,0l0,-19.206993l4.838013,0l0,18.913994l4.838989,0l0,-23.312798l5.570984,0l-0.29303,32.696808l-296.684998,0.153l0,0z"/>
   <path fill="#cccccc" fill-rule="evenodd" id="path6551" d="m424.66098,132.091248l0.146606,-16.780907l6.842804,0l0,15.966225l3.732178,0l0,-19.698517l6.428009,0l0,14.722084l5.183899,0l0,-11.611801l5.598511,0l0,10.989708l5.183807,0l0,-14.722069c0,0 4.354492,-11.611832 7.879395,0c0,4.35437 0,14.722069 0,14.722069l1.036804,0l0,-24.675072l6.972595,4.025696l0,21.997177l2.980499,0l0,-21.875771l1.658783,0l0,-3.732399l5.080109,0l0,3.110359l2.48819,0l0,21.979416l2.695618,0l0,-17.313995l1.451508,-0.103683l1.555176,-10.886024l1.658905,10.989708l2.073517,0l0,17.313995l2.177185,-0.207314l2.25,-25.828766l2.859802,-4.41423l2.873199,0.073021l3.290314,4.364059l1.25,26.427933l4.894318,0l0,-26.95591l7.361084,0l0,26.852219l1.762512,0l0,-24.57132l5.805847,0l0,23.534592l0.829407,0l0,-20.735359l5.444702,1.458939l0,19.380058l6.063538,0l0,-23.74192l1.910095,-3.308365l1.98468,3.437866l0,23.301399l5.643311,0l0,-24.571381l6.220703,0l0,24.15667l1.24408,0l0,-26.748581l10.056641,0l0,26.230194l4.043457,0l0,-14.722084l5.702087,0l0,13.996376l0.829407,0l0,-26.126511l6.739136,0l0,26.333817l1.866211,0l0,-24.156609l8.190491,0l0,24.57132l3.835999,0l0,-24.342941l2.439575,0l0,-6.597961l4.325317,0l0,6.597961l3.152283,0l0,24.485695l4.10553,0l0,-16.421532l6.964478,0l0,16.49485l6.524719,0l0,-22.506325c0,0 3.812073,-4.691864 8.650574,-0.513153c-0.073303,2.272614 0,23.239395 0,23.239395l1.612915,0l0,-19.720497l4.984985,0l5.038025,18.801712l2.586304,0l0,-8.098404l1.09967,-2.712486l0.953003,2.712486l5.424988,0l0.62323,-2.46505l0.962158,2.45591l0,8.036636l3.656311,0l0,-12.426094l4.545227,0l0,12.16951l2.089417,0l0,-21.113403l6.451294,0l0,20.82016l4.545288,0l0,-23.899208l7.184387,0l0,5.131737l2.639099,0l0,-5.864845l6.451416,0l0,24.485695l1.759399,0l0,-14.955315l4.252075,0l0,14.51545l2.932434,0l0,-19.207321l4.838501,0l0,18.914078l4.838379,0l0,-23.312721l5.571716,0l-0.293213,32.696472l-296.684601,0.153198z"/>
   <path fill="#cccccc" fill-rule="evenodd" id="path6553" d="m170.650986,129.066864l0.146698,-16.780914l6.842804,0l0,15.966232l3.732208,0l0,-19.698532l6.427994,0l0,14.722099l5.183899,0l0,-11.611832l5.598602,0l0,10.989746l5.183701,0l0,-14.722107c0,0 4.354599,-11.611794 7.879395,0c0,4.354393 0,14.722107 0,14.722107l1.036911,0l0,-24.675095l6.972488,4.025703l0,21.9972l2.980499,0l0,-21.875809l1.658798,0l0,-3.732391l5.080109,0l0,3.110367l2.488205,0l0,21.979431l2.695587,0l0,-17.314011l1.451508,-0.103691l1.555206,-10.886032l1.65889,10.989723l2.07341,0l0,17.314011l2.177292,-0.207321l0,-23.016281l4.172394,-7.22673l3.810608,0.073029l4.540405,7.864052l0,22.92794l4.894287,0l0,-26.955917l7.360992,0l0,26.852242l1.762512,0l0,-24.571342l5.806,0l0,23.534607l0.829315,0l0,-20.735374l5.444702,1.458946l0,19.380058l6.063477,0l0,-23.74192l1.910095,-3.308357l1.984711,3.437851l0,23.301422l5.643311,0l0,-24.571404l6.220703,0l0,24.1567l1.24408,0l0,-26.748611l10.05661,0l0,26.230209l4.043488,0l0,-14.722084l5.702209,0l0,13.996376l0.829285,0l0,-26.126518l6.739105,0l0,26.333839l1.866211,0l0,-24.156639l8.190491,0l0,24.57135l3.835999,0l0,-24.342964l2.439697,0l0,-6.597946l4.325317,0l0,6.597946l3.152283,0l0,24.485703l4.105408,0l0,-16.421547l6.964508,0l0,16.494865l6.524689,0l0,-22.50634c0,0 3.812103,-4.691872 8.650604,-0.513168c-0.073303,2.272629 0,23.239441 0,23.239441l1.612915,0l0,-19.720528l4.985077,0l5.038025,18.801735l2.586182,0l0,-8.098396l1.099701,-2.712524l0.953003,2.712524l5.425018,0l0.623077,-2.46508l0.962311,2.455917l0,8.036652l3.656311,0l0,-12.426132l4.545197,0l0,12.169556l2.089386,0l0,-21.113426l6.451416,0l0,20.820183l4.545197,0l0,-23.899231l7.184479,0l0,5.131729l2.639008,0l0,-5.86483l6.451416,0l0,24.48571l1.759399,0l0,-14.95536l4.252075,0l0,14.515495l2.932404,0l0,-19.207352l4.838501,0l0,18.914108l4.838409,0l0,-23.312759l5.571686,0l-0.293274,32.696495l-296.684616,0.153198z"/>
   <path fill="#e6e6e6" fill-rule="evenodd" id="path6555" d="m477.829193,129.174896l-0.146606,-16.780914l-6.842804,0l0,15.966232l-3.732178,0l0,-19.698524l-6.428101,0l0,14.722092l-5.183807,0l0,-11.611832l-5.598602,0l0,10.989754l-5.183807,0l0,-14.722092c0,0 -4.354401,-11.611832 -7.879395,0c0,4.35437 0,14.722092 0,14.722092l-1.036804,0l0,-24.67511l-6.972504,4.025703l0,21.9972l-2.980408,0l0,-21.875809l-1.658783,0l0,-3.732391l-5.080109,0l0,3.110374l-2.488403,0l0,21.979416l-2.695587,0l0,-17.314011l-1.451416,-0.103676l-1.555084,-10.88604l-1.658905,10.989716l-2.073608,0l0,17.314011l-2.177185,-0.207314l0,-23.016266l-4.172394,-8.469688l-3.810608,0.073021l-4.540314,9.10701l0,22.927948l-4.894379,0l0,-26.955925l-7.361023,0l0,26.852249l-1.762482,0l0,-24.57135l-5.805908,0l0,23.534615l-0.829498,0l0,-20.73539l-5.444611,1.458954l0,19.380066l-6.063477,0l0,-23.741936l-1.910126,-3.308365l-1.98468,3.437851l0,23.301445l-5.643402,0l0,-24.571419l-6.220612,0l0,24.156708l-1.24408,0l0,-26.748611l-10.056702,0l0,26.230217l-4.043427,0l0,-14.722107l-5.702087,0l0,13.996391l-0.829498,0l0,-26.126534l-6.739014,0l0,26.333855l-1.866089,0l0,-24.156639l-8.190613,0l0,24.571335l-3.835876,0l0,-24.342957l-2.439697,0l0,-6.597954l-4.325409,0l0,6.597954l-3.152313,0l0,24.485718l-4.105499,0l0,-16.421562l-6.964386,0l0,16.494865l-6.524597,0l0,-22.506332c0,0 -3.812195,-4.691872 -8.650604,-0.513168c0.073212,2.272629 0,23.239441 0,23.239441l-1.613007,0l0,-19.720543l-4.984985,0l-5.03801,18.80175l-2.586395,0l0,-8.098412l-1.099609,-2.712509l-0.953003,2.712509l-5.424988,0l-0.623108,-2.46508l-0.962296,2.455933l0,8.036652l-3.656296,0l0,-12.426132l-4.545212,0l0,12.169548l-2.089493,0l0,-21.113426l-6.451202,0l0,20.820175l-4.545303,0l0,-23.899231l-7.184494,0l0,5.131737l-2.639206,0l0,-5.86483l-6.451202,0l0,24.48571l-1.759491,0l0,-14.955353l-4.252106,0l0,14.515503l-2.932404,0l0,-19.207375l-4.838501,0l0,18.914124l-4.838394,0l0,-23.312752l-5.571594,0l0.293198,32.696503l296.684601,0.153183z"/>
   <path fill="#b3b3b3" fill-rule="evenodd" id="path6557" d="m69.126198,132.401001l0.146599,-16.780998l6.842606,0l0,15.965996l3.7323,0l0,-19.698997l6.428001,0l0,14.722l5.183899,0l0,-11.611l5.598595,0l0,10.988998l5.1838,0l0,-14.722c0,0 4.354004,-11.611603 7.879005,0c0,4.355003 0,14.722 0,14.722l1.036995,0l0,-24.675003l6.973,4.026001l0,21.997002l2.980003,0l0,-21.875999l1.658997,0l0,-3.732002l5.080002,0l0,3.110001l2.487999,0l0,21.980003l2.695999,0l0,-17.314003l1.451004,-0.103996l1.556,-10.886002l1.658005,10.989998l2.07399,0l0,17.314003l2.177002,-0.208l0,-23.015999l4.173004,-7.226601l3.809998,0.073097l4.541,7.864502l0,22.927002l4.893997,0l0,-26.955002l7.361008,0l0,26.851997l1.761993,0l0,-24.571999l5.806,0l0,23.535004l0.830002,0l0,-20.735001l5.444,1.459l0,19.379997l6.063995,0l0,-23.741997l1.910004,-3.308601l1.985001,3.437599l0,23.302002l5.643005,0l0,-24.572006l6.220993,0l0,24.157005l1.244003,0l0,-26.748604l10.056,0l0,26.230598l4.044006,0l0,-14.723l5.701996,0l0,13.997002l0.828995,0l0,-26.126701l6.738998,0l0,26.333702l1.867004,0l0,-24.155998l8.190002,0l0,24.570999l3.835999,0l0,-24.343002l2.440002,0l0,-6.598l4.324997,0l0,6.598l3.153,0l0,24.486l4.105011,0l0,-16.421997l6.963989,0l0,16.495003l6.524994,0l0,-22.506004c0,0 3.812012,-4.692299 8.651001,-0.514c-0.074005,2.273003 0,23.239998 0,23.239998l1.612,0l0,-19.721001l4.985992,0l5.038025,18.802002l2.585999,0l0,-8.098l1.099976,-2.712997l0.953003,2.712997l5.425018,0l0.622986,-2.464996l0.962006,2.456001l0,8.035995l3.656006,0l0,-12.426003l4.54599,0l0,12.170006l2.08902,0l0,-21.114006l6.450989,0l0,20.82l4.544983,0l0,-23.898895l7.185028,0l0,5.131897l2.638977,0l0,-5.864998l6.451019,0l0,24.486l1.759979,0l0,-14.956001l4.252014,0l0,14.515999l2.932007,0l0,-19.207001l4.838989,0l0,18.914001l4.838013,0l0,-23.313095l5.571991,0l-0.292999,32.696091l-296.684807,0.154007l0,0z"/>
   <path fill="#4d4d4d" fill-rule="evenodd" id="path6559" d="m0.32438,98.673088l5.8903,0l0,24.156693l1.2441,0l0,-26.748619l10.0567,0l0,26.230232l4.0434,0l0,-14.722115l5.7022,0l0,13.996384l0.8293,0l0,-26.126526l6.7391,0l0,26.333862l1.866199,0l0,-24.156639l8.190502,0l0,24.571327l3.835999,0l0,-24.342934l2.439701,0l0,-6.597946l4.325298,0l0,6.597946l3.152401,0l0,24.485687l4.1054,0l0,-16.421532l6.9645,0l0,16.49485l6.524696,0l0,-22.50631c0,-0.000023 3.812103,-4.691902 8.650604,-0.513199c-0.073402,2.272606 0,23.239441 0,23.239441l1.612701,0l0,-19.720512l4.985199,0l5.037895,18.801727l2.586304,0l0,-8.098419l1.099701,-2.712471l0.953102,2.712471l5.424896,0l0.623199,-2.46505l0.962204,2.45591l0,8.036652l3.656395,0l0,-12.426117l4.545204,0l0,12.169525l2.089401,0l0,-21.113411l6.451294,0l0,20.820175l4.545197,0l0,-23.899208l7.184509,0l0,5.131729l2.639099,0l0,-5.864845l6.451401,0l0,24.485703l1.759399,0l0,-14.95533l4.251999,0l0,14.515457l2.932404,0l0,-19.207336l4.838501,0l0,18.914108l4.838501,0l0,-23.312729l5.571686,0l-0.293289,32.696465l-169.308813,0.087402"/>
   <path fill="#b3b3b3" fill-rule="evenodd" id="path6571" d="m185.410873,98.705948l-5.890305,0l0,24.15667l-1.244095,0l0,-26.748589l-10.056702,0l0,26.230202l-4.043396,0l0,-14.722099l-5.702209,0l0,13.996391l-0.829193,0l0,-26.126534l-6.739304,0l0,26.3339l-1.865997,0l0,-24.156662l-8.190506,0l0,24.571373l-3.83609,0l0,-24.342987l-2.439713,0l0,-6.597954l-4.325195,0l0,6.597954l-3.152397,0l0,24.485733l-4.105499,0l0,-16.421585l-6.9645,0l0,16.494896l-6.524605,0l0,-22.506348c0,-0.000031 -3.812195,-4.691902 -8.650597,-0.513191c0.073196,2.272614 0,23.23941 0,23.23941l-1.612801,0.000053l0,-19.720543l-4.9851,0l-5.038002,18.801712l-2.586296,0l0,-8.098358l-1.0998,-2.712517l-0.952904,2.712517l-5.424995,0l-0.6231,-2.465096l-0.962204,2.455894l0,8.036705l-3.656395,0l0,-12.426155l-4.545303,0l0,12.169571l-2.089302,0l0,-21.113464l-6.451298,0l0,20.820221l-4.545399,0l0,-23.899261l-7.184402,0l0,5.131752l-2.639099,0l0,-5.864861l-6.451401,0l0,24.485741l-1.759399,0l0,-14.95536l-4.251999,0l0,14.515511l-2.932402,0l0,-19.20739l-4.838499,0l0,18.914146l-4.838501,0l0,-23.312775l-5.571699,0l0.293301,32.69651l169.308905,0.087402"/>
   <path fill="#999999" fill-rule="evenodd" id="path2709" d="m791.831909,125.843819l1.683289,0l0,-26.95594l7.361084,0l0,26.852303l1.762451,0l0,-24.571411l5.805969,0l0,23.534668l0.829285,0l0,-20.735352l5.444946,1.458862l0,19.380135l6.063293,0l0,-23.741951l1.910095,-3.30835l1.984863,3.437866l0,23.301392l5.643311,0l0,-24.57135l6.220703,0l0,24.156677l1.244202,0l0,-26.748657l10.056335,0l0,26.230217l4.043457,0l0,-14.722038l5.702209,0l0,13.996338l0.829407,0l0,-26.126526l6.739014,0l0,26.333862l1.866211,0l0,-24.15667l8.190491,0l0,24.57135l3.835999,0l0,-24.342964l2.43988,0l0,-6.597961l4.325134,0l0,6.597961l3.152466,0l0,24.485718l4.105225,0l0,-16.42157l6.9646,0l0,16.494873l6.524658,0l0,-22.506348c0,0.000031 3.812134,-4.691856 8.650635,-0.513153c-0.073425,2.272598 0,23.239449 0,23.239449l1.612793,0.000023l0,-19.720581l4.985291,0l5.037781,18.801758l2.586426,0l0,-8.098389l1.099609,-2.712532l0.953186,2.712532l5.424927,0l0.623169,-2.465088l0.962097,2.455925l0,8.03669l3.656311,0l0,-12.426147l4.54541,0l0,12.169548l2.089172,0l0,-21.113457l6.451416,0l0,20.82019l4.545105,0l0,-23.899231l7.184692,0l0,5.131714l2.639099,0l0,-5.864807l6.451233,0l0,24.48571l1.75946,0l0,-14.955376l4.252014,0l0,14.515503l2.932495,0l0,-19.207336l4.838501,0l0,18.914124l4.838501,0l0,-23.312798l5.571533,0l-0.293335,32.696533l-208.122925,0.107468"/>
  </g>
  <g display="inline" id="layer14">
   <path fill="#999999" fill-rule="evenodd" id="path4146" d="m332.046295,121.496002l0,-39.655579c0,-1.85688 2.540802,-6.330704 5.733307,-6.408394c3.343506,-0.081718 5.961884,4.660339 6.031891,6.408394c0.007019,0.180588 0,39.41787 0,39.41787l-11.765198,0.237709z"/>
   <path fill="#cccccc" fill-rule="evenodd" id="path4153" d="m439.621979,58.911469l3.461487,10.779884l0,53.111206l-15.117676,0.145172l0,0l0,-53.850609l3.333496,-9.879093l4.235596,-6.858128l4.087097,6.551567z"/>
   <path fill="#cccccc" fill-rule="evenodd" id="path4155" d="m448.378998,114.457001l0,-46.9291l3.14801,0l0,3.017601l7.446991,0l0,-3.033203l2.942993,0l0,46.927704l-13.537994,0.016998l0,0z"/>
   <path fill="#ececec" fill-rule="evenodd" id="path4602" d="m953.887756,121.450783l0.088318,-53.421501l-12.009399,7.534019l0,45.887482l11.921082,0z"/>
   <path fill="#f2f2f2" fill-rule="evenodd" id="path4604" d="m969.590027,85.093597l1.962952,6.115799l0,30.131607l-8.575989,0.083l0,0l0,-30.551605l1.890991,-5.604797l2.403015,-3.8909l2.319031,3.716995l0,-0.000099z"/>
  </g>
  <g display="inline" id="layer12">
   <rect fill="#333333" fill-rule="nonzero" id="rect2693" y="121.28368" x="0.012326" height="20.858906" width="999.96722"/>
   <rect fill="#000000" fill-rule="nonzero" id="rect3848" y="139.03503" x="0.01257" height="10.960269" width="999.9577"/>
  </g>
  <g display="inline" id="layer13">
   <path fill="#000000" stroke="#000000" stroke-width="0.136561" id="tree03" d="m66.506401,121.296997c0,0 0.955795,-0.070999 0.955795,-0.070999c0,0 3.140907,0.441002 3.140907,0.441002c0.548996,0.155998 0.834396,0.511002 1.3657,0.675003c0,0 1.228996,0.146996 1.228996,0.146996c0.408302,0.107002 1.578598,0.889999 1.883102,1.199005c0.3237,0.327995 0.957397,1.426994 1.035194,1.882996c0.009605,0.446999 -0.301697,0.936005 0,1.284004c0.345604,0.324997 0.883606,0.114998 1.4394,0.416c0.503906,0.274994 0.670502,0.745995 1.020103,1.163002c0.538101,0.64299 1.473503,1.21199 1.416199,2.186996c-0.073799,1.250992 -2.482697,0.690994 -2.947098,1.918991c-0.398804,1.053009 2.230103,0.893005 1.801201,2.174011c-0.326302,0.974991 -1.772499,0.784988 -2.507202,1.063995c0,0 -1.7752,1.014008 -1.7752,1.014008c-0.4179,0.187988 -0.880898,0.544998 -1.341103,0.271988c-0.811195,-0.483002 -0.6241,-1.496994 -0.789299,-1.931992c-0.150299,-0.396011 -0.514801,-0.682007 -0.874001,-0.88501c-0.268997,-0.151993 -0.630997,-0.312988 -0.938194,-0.179993c-0.5326,0.227997 -1.254204,1.261002 -1.327301,1.843994c0,0 -0.685799,3.498001 -0.685799,3.498001c-0.105103,0.488007 0.084793,1.061005 0.083496,1.594009c0,0.296997 0.028702,0.701996 -0.139198,0.952988c-0.489601,0.144012 -0.758904,0.244003 -1.317902,-0.141998c-0.284096,-0.606995 0.051903,-0.889999 0.135201,-1.580002c0.027298,-0.830994 0.122902,-2.160995 0.087303,-3.054993c0,0 -0.113304,-0.955994 -0.113304,-0.955994c0,0 -0.126999,-0.683014 -0.126999,-0.683014c-0.043602,-0.133987 -0.100998,-0.280991 -0.176201,-0.400986c-0.817902,-1.309006 -1.941902,0.531998 -2.458,0.807999c-0.255402,0.136993 -0.525696,0.138 -0.806999,0.115997c-0.411098,-0.033005 -1.016098,-0.13501 -1.3657,-0.350998c-0.3578,-0.220001 -0.708698,-0.662003 -1.092499,-0.744003c-0.614502,-0.132004 -2.383003,1.324997 -2.6479,-0.113007c-0.027302,-0.136993 -0.008301,-0.270996 0,-0.406998c0.047798,-0.667999 0.1502,-1.418991 -0.161102,-2.042999c-0.412399,-0.826004 -0.59,-0.283005 -1.332901,-2.054001c-0.103798,-0.248993 -0.268997,-0.552002 -0.2976,-0.819992c-0.107998,-1.036011 1.358803,-1.556007 1.6264,-2.197006c0.2047,-0.391998 0.0163,-0.691002 0,-1.080002c-0.066998,-0.407997 0.139301,-1.258995 0.314003,-1.625999c0.214497,-0.455002 0.5709,-0.599998 0.889099,-0.992996c0.311398,-0.384003 0.458797,-0.899002 0.9408,-1.104004c0.423401,-0.18 0.895901,-0.000999 1.488598,-0.352997c0.615902,-0.368004 0.831703,-0.840004 1.638802,-1.267998c1.014603,-0.236 1.919998,0.328995 2.731201,0.386993l0,0z"/>
   <path fill="#000000" stroke="#000000" stroke-width="0.158984" id="tree04" d="m335.751373,115.990211c0.804382,0.0811 1.247986,-0.364029 2,0.267151c0.352905,0.297287 0.885498,0.936378 1.068298,1.362457c0.213013,0.49604 0.251312,1.316429 0.780701,1.631187c0.724884,0.429253 1.090607,-0.984116 2.015808,-0.702728c0.67569,0.20668 0.661377,1.047752 0.650299,1.615311c-0.035004,1.817207 -1.240021,3.273453 -1.084198,4.448349c0.136688,1.036552 1.6008,1.203529 1.524597,2.543762c-0.047699,0.841019 -0.8172,0.891922 -1.694794,1.766327c-1,1 -1.362427,1.918961 -1.899811,3.165359c-0.163818,0.383148 -0.370392,1.257538 -0.6138,1.494476c-0.484802,0.472183 -1.168518,0.001999 -1.786896,0.219421c-0.468994,0.163742 -0.694702,0.577103 -1.133606,0.841003c-0.826599,0.496048 -2.642212,0.651825 -3.13681,1.596176c-0.157288,0.372009 -0.026886,1.988953 0,2.526291c-0.028503,0.413345 0.003021,1.174881 -0.233582,1.51828c-0.105011,0.15419 -0.241699,0.252777 -0.432526,0.252777c-0.720093,0 -0.634277,-1.141479 -0.634277,-1.612076c0,0 0,-2.225769 0,-2.225769c-0.033417,-1.740906 -1.004822,-1.577164 -2.225708,-2.100204c0,0 -1.430908,-0.740829 -1.430908,-0.740829c-0.51828,-0.27507 -1.076385,-0.769531 -1.589905,-0.90625c-0.640686,-0.171707 -1.707581,0.101761 -2.06839,-0.345016c-0.432495,-0.535751 0.185913,-1.944382 -0.116089,-2.744049c-0.251221,-0.669342 -0.941101,-1.092209 -1.28772,-1.74884c-0.187592,-0.354515 -0.631195,-1.82988 -0.632782,-2.225746c0,0 0.147888,-1.271858 0.147888,-1.271858c-0.068298,-0.613693 -0.585083,-1.009583 -0.581909,-1.589851c0.005005,-0.686821 0.639221,-0.910973 1.15741,-1.907822c0.44519,-0.858498 0.829895,-2.144722 1.507202,-2.828331c1.028595,-1.039772 1.944397,-0.973022 2.987213,-1.416527c0.492981,-0.208321 1.345184,-0.995331 2.543793,-1.467445c0.484985,-0.190788 1.070007,-0.187614 1.589905,-0.262337c1.670807,-0.197174 3.739197,0.761559 4.610596,0.847351z"/>
   <path fill="#000000" stroke="#000000" stroke-width="0.106854" id="path6593" d="m942.375977,122.733002c0,0 0.748047,-0.055 0.748047,-0.055c0,0 2.457947,0.345001 2.457947,0.345001c0.429016,0.121994 0.653015,0.399994 1.068054,0.528c0,0 0.961975,0.114998 0.961975,0.114998c0.319031,0.083 1.234985,0.696999 1.473022,0.937996c0.253967,0.257004 0.748962,1.117004 0.809998,1.474007c0.006958,0.348999 -0.236023,0.731995 0,1.003998c0.270996,0.254997 0.691956,0.089996 1.126953,0.325996c0.394043,0.215004 0.524048,0.584 0.798035,0.909004c0.421021,0.503998 1.153015,0.949005 1.107971,1.712006c-0.057983,0.978989 -1.942993,0.541 -2.305969,1.501999c-0.312012,0.822998 1.744995,0.697998 1.408997,1.700989c-0.255005,0.763 -1.387024,0.613998 -1.960999,0.832001c0,0 -1.390015,0.794006 -1.390015,0.794006c-0.325989,0.145996 -0.688965,0.425995 -1.049011,0.212997c-0.63501,-0.378998 -0.487976,-1.171997 -0.617981,-1.511993c-0.117004,-0.310013 -0.401978,-0.534012 -0.682983,-0.693008c-0.210999,-0.117996 -0.494019,-0.244003 -0.734009,-0.140991c-0.416992,0.179001 -0.981995,0.987 -1.039001,1.442993c0,0 -0.536987,2.738007 -0.536987,2.738007c-0.082031,0.380997 0.066956,0.829987 0.065979,1.245987c0,0.233002 0.021973,0.550003 -0.109009,0.746002c-0.382996,0.113007 -0.593994,0.192001 -1.031006,-0.110992c-0.222961,-0.473999 0.040039,-0.695999 0.106018,-1.236008c0.020996,-0.651001 0.096008,-1.690994 0.067993,-2.390991c0,0 -0.088989,-0.748001 -0.088989,-0.748001c0,0 -0.098999,-0.533997 -0.098999,-0.533997c-0.033997,-0.105011 -0.078979,-0.220001 -0.138,-0.314011c-0.640015,-1.024002 -1.52002,0.417007 -1.924011,0.633011c-0.198975,0.105988 -0.411011,0.106995 -0.630981,0.089996c-0.322021,-0.025009 -0.795044,-0.104996 -1.069031,-0.274002c-0.278992,-0.171997 -0.553955,-0.518005 -0.854004,-0.583008c-0.480957,-0.102997 -1.86499,1.037003 -2.07196,-0.087997c-0.022034,-0.106995 -0.006042,-0.21199 0,-0.319c0.036987,-0.521988 0.117004,-1.110001 -0.126038,-1.597992c-0.322998,-0.647003 -0.461975,-0.221008 -1.042969,-1.60701c-0.080994,-0.194992 -0.210999,-0.431992 -0.233032,-0.640991c-0.084961,-0.811005 1.063049,-1.219002 1.27301,-1.720001c0.160034,-0.306 0.012024,-0.540001 0,-0.845001c-0.052979,-0.319 0.109009,-0.985001 0.244995,-1.273003c0.16803,-0.354996 0.447021,-0.468994 0.696045,-0.775993c0.242981,-0.301003 0.358948,-0.703003 0.735962,-0.864006c0.330994,-0.140999 0.700989,-0.000999 1.164978,-0.276001c0.482056,-0.287994 0.651001,-0.657997 1.282043,-0.991997c0.794006,-0.184998 1.502014,0.257004 2.136963,0.302002l0,0z"/>
  </g>
  <g display="inline" id="layer11">
   <g display="inline" id="g3228"/>
   <g id="g3909">
    <path fill="#000000" fill-rule="evenodd" stroke="#000000" stroke-width="0.129585px" id="path3094" d="m932.04657,140.138046l-0.043823,-14.12558c0,0 1.20813,-0.161087 1.852478,-0.912796c0,-0.107391 0,-37.424332 0,-37.424332l-12.782715,-0.000809c0,0 0,37.31694 0,37.424316c0.644348,0.751709 1.852417,0.912804 1.852417,0.912804l0,13.933449c2.112915,1.832901 7.006897,1.384186 9.121643,0.192947z"/>
    <path fill="#000000" fill-rule="evenodd" stroke="#000000" stroke-width="0.129585px" id="path3096" d="m924.933411,87.699997l-0.040039,-19.624695l5.087036,0l0.013977,19.620094l-5.060974,0.004601l0,0z"/>
    <path fill="#000000" fill-rule="evenodd" stroke="#000000" stroke-width="0.129585px" id="path3098" d="m921.609009,84.306168l0,1.385811l11.731812,0l0,-1.404778l-11.731812,0.018967z"/>
    <path fill="#000000" fill-rule="evenodd" stroke="#000000" stroke-width="0.129585px" id="path3100" d="m921.666382,80.357597l0,1.385803l11.731018,0l0,-1.4048l-11.731018,0.018997l0,0z"/>
    <path fill="#000000" fill-rule="evenodd" stroke="#000000" stroke-width="0.129585px" id="path3102" d="m921.590027,76.409042l0,1.385796l11.731812,0l0,-1.40477l-11.731812,0.018974z"/>
    <path fill="#000000" fill-rule="evenodd" stroke="#000000" stroke-width="0.129585px" id="path3104" d="m921.703918,72.441498l0,1.385796l3.315002,0l8.416809,0l0,-1.40477l-11.731812,0.018974z"/>
    <path fill="#000000" fill-rule="evenodd" stroke="#000000" stroke-width="0.129585px" id="path3106" d="m921.609009,68.416992l0,1.385796l11.731812,0l0,-1.404778l-11.731812,0.018982z"/>
    <path fill="#000000" fill-rule="evenodd" stroke="#000000" stroke-width="0.129585px" id="path3108" d="m930.075378,68.052902c0,0 3.190002,-0.1138 3.796997,-0.531502c-0.018982,-0.987099 -0.018982,-1.006104 -0.018982,-1.006104c0,0 -0.190002,-0.189896 -0.759033,-0.284798c-0.057007,0.018997 -0.037964,-0.246796 -0.037964,-0.246796l0.531006,0l0.247009,-0.246704l0,-4.024597l0.34198,0c0,0 0.211975,-0.116104 0.286011,-0.310699c0,-0.221504 0,-5.228401 0,-5.228401c0,0 -0.282043,-0.328903 -0.651001,-0.443001c0.019958,-0.020203 0,-3.563904 0,-3.563904c-0.403992,-0.662697 -2.228027,-0.903595 -3.450012,-1.0672l0.007019,-0.2752c0,0 1.060974,-0.073799 1.248962,-0.301994c0.02002,0 0.389038,-0.328804 0.408997,-0.463104c0.013,-0.026802 0,-2.449699 0,-2.449699c-0.141968,-0.246796 -1.235962,-0.678101 -2.234985,-0.745102l-4.651001,0.003502c-1,0.066902 -2.093018,0.498199 -2.234985,0.745003c0,0 -0.014038,2.422897 0,2.449699c0.019958,0.1343 0.388977,0.463097 0.408997,0.463097c0.187988,0.228203 1.247986,0.302101 1.247986,0.302101l0.007019,0.275101c-1.221985,0.163597 -3.045044,0.404503 -3.449036,1.0672c0,0 -0.020996,3.543701 0,3.563904c-0.369995,0.114098 -0.651001,0.442993 -0.651001,0.442993c0,0 0,5.006905 0,5.228401c0.072998,0.194603 0.286011,0.310699 0.286011,0.310699l0.342041,0l0,4.024605l0.245972,0.246796l0.531982,0c0,0 0.019043,0.265701 -0.037964,0.246704c-0.570007,0.095001 -0.759033,0.284798 -0.759033,0.284798c0,0 0,0.018997 -0.018982,1.006104c0.606995,0.417595 3.796021,0.531494 3.796021,0.531494l5.220947,-0.003395l-0.000977,0z"/>
    <path fill="#000000" fill-rule="evenodd" stroke="#000000" stroke-width="0.129585px" id="path3110" d="m921.971802,84.278412l0,-0.268463l-0.697998,0l-0.12085,0.402702l-0.805359,0.01342l-0.161133,-0.751717l0,-0.778557l0.147705,-0.510078l0.818787,-0.026848l0.201355,0.268463l0,1.140984l0.912842,0.026848l0.013367,0.442986l-0.308716,0.04026z"/>
    <path fill="#000000" fill-rule="evenodd" stroke="#000000" stroke-width="0.129585px" id="path3112" d="m921.73938,80.289597l0,-0.268394l-0.697998,0l-0.119995,0.402695l-0.80603,0.013405l-0.16095,-0.751701l0,-0.778603l0.147949,-0.510101l0.819031,-0.026794l0.200989,0.268494l0,1.1409l0.913025,0.026901l0.013,0.443001l-0.309021,0.040199l0,0z"/>
    <path fill="#000000" fill-rule="evenodd" stroke="#000000" stroke-width="0.129585px" id="path3114" d="m921.904724,76.398903l0,-0.268463l-0.697998,0l-0.12085,0.402702l-0.805359,0.01342l-0.161133,-0.751709l0,-0.778564l0.147705,-0.510078l0.818787,-0.026848l0.201355,0.268471l0,1.140984l0.912781,0.026855l0.013428,0.44297l-0.308716,0.04026z"/>
    <path fill="#000000" fill-rule="evenodd" stroke="#000000" stroke-width="0.129585px" id="path3116" d="m923.087646,72.416229l0,-0.268478l-0.697998,0l-0.12085,0.40271l-0.805359,0.013412l-0.161072,-0.751701l0,-0.778549l0.147644,-0.510086l0.818787,-0.026848l0.201355,0.268463l0,1.140991l0.912781,0.02684l0.013428,0.44297l-0.308716,0.040276z"/>
    <path fill="#000000" fill-rule="evenodd" stroke="#000000" stroke-width="0.129585px" id="path3118" d="m932.549438,78.251328l-0.966492,0c0,0 -1.167847,0.845673 -0.040283,2.013504c0.026794,-0.040283 1.26178,0.053696 1.26178,0.053696c0,0 1.073853,-1.248383 -0.255005,-2.0672z"/>
    <path fill="#000000" fill-rule="evenodd" stroke="#000000" stroke-width="0.129585px" id="path3120" d="m932.618408,82.361397l-0.967041,0c0,0 -1.166992,0.845604 -0.039978,2.013504c0.026978,-0.040306 1.261963,0.053696 1.261963,0.053696c0,0 1.074036,-1.248398 -0.254944,-2.0672l0,0z"/>
    <path fill="#000000" fill-rule="evenodd" stroke="#000000" stroke-width="0.116567px" id="path3122" d="m932.603088,74.495689l-0.777161,0c0,0 -0.939087,0.850998 -0.03241,2.026192c0.021606,-0.04052 1.014648,0.054016 1.014648,0.054016c0,0 0.863525,-1.256218 -0.205078,-2.080208z"/>
    <path fill="#000000" fill-rule="evenodd" stroke="#000000" stroke-width="0.110403px" id="path3124" d="m931.447388,71.170502l-0.695007,0c0,0 -0.840027,0.8535 -0.028992,2.032196c0.02002,-0.040695 0.90802,0.054199 0.90802,0.054199c0,0 0.771973,-1.259995 -0.184021,-2.086395l0,0z"/>
    <path fill="#000000" fill-rule="evenodd" stroke="#000000" stroke-width="0.121836px" id="path3126" d="m923.779358,74.821098l-0.850952,0c0,0 -1.029053,0.848801 -0.036011,2.021004c0.023987,-0.040405 1.110962,0.053894 1.110962,0.053894c0,0 0.946045,-1.253098 -0.223999,-2.074898l0,0z"/>
    <path fill="#000000" fill-rule="evenodd" stroke="#000000" stroke-width="0.133991px" id="path3128" d="m924.055786,78.642807l-0.964539,0c0,0 -1.165405,0.905998 -0.040161,2.157135c0.026794,-0.043144 1.259216,0.057518 1.259216,0.057518c0,0 1.071655,-1.337425 -0.254517,-2.214653z"/>
    <path fill="#000000" fill-rule="evenodd" stroke="#000000" stroke-width="0.126326px" id="path3130" d="m923.864502,82.492615l-0.917053,0c0,0 -1.108093,0.847 -0.038208,2.016693c0.025513,-0.040337 1.197266,0.05378 1.197266,0.05378c0,0 1.018921,-1.250351 -0.242004,-2.070473z"/>
    <path fill="#000000" fill-rule="evenodd" stroke="#000000" stroke-width="0.142933px" id="path3132" d="m925.629395,36.887199l3.692017,0.049202l-0.121033,1.360298l-3.598022,0l0.027039,-1.4095l0,0z"/>
    <path fill="#000000" fill-rule="evenodd" stroke="#000000" stroke-width="0.186913px" id="path3134" d="m929.057373,39.714699l-3.070007,0l0.002014,1.365501l3.044006,0l0.023987,-1.365501l0,0z"/>
    <path fill="#000000" fill-rule="evenodd" stroke="#000000" stroke-width="0.201345px" id="path3136" d="m926.182373,42.634758l2.58606,0l0,1.498783l-2.579041,0l-0.007019,-1.498783z"/>
    <path fill="#000000" fill-rule="evenodd" stroke="#000000" stroke-width="0.199956px" id="path3138" d="m926.557373,45.318802l1.863037,0l0,0.828896l-1.876038,0l0.013,-0.828896l0,0z"/>
    <path fill="none" stroke="#000000" stroke-width="0.323962" stroke-miterlimit="4" id="path3140" d="m926.440308,46.937157l-0.882751,-9.985317l3.815735,0.05695l-0.892273,9.937874l-2.04071,-0.009506z"/>
    <path fill="none" stroke="#000000" stroke-width="0.311004" stroke-miterlimit="4" id="path3142" d="m927.560364,36.818962l0,-6.853043"/>
   </g>
  </g>
  <g display="inline" id="layer10">
   <path fill="#000000" fill-rule="evenodd" stroke="#000000" stroke-width="0.163531" stroke-miterlimit="4" id="path3090" d="m894.588867,139.636566c-0.166382,0.594757 -0.893372,1.430328 -0.956604,1.48053c-5.033264,4.000946 -18.340576,4.67598 -25.574219,-0.495758c-0.285767,-0.20433 -1.568665,-1.822678 -1.568665,-1.86554c-1.30011,-11.123428 -9.132202,-79.204037 12.659973,-105.55843c-0.156494,-0.156578 2.349243,-0.156578 2.349243,-0.156578c22.971069,23.146709 14.20697,106.465816 13.090271,106.595776z"/>
  </g>
  <g display="inline" id="layer9">
   <path fill="#000000" fill-rule="evenodd" stroke="#000000" stroke-width="0.015306" stroke-miterlimit="4" id="path3293" d="m747.833984,139.675995l0,-2.309998l0.257019,-0.257004l-0.013,-7.505997c0,0 -0.372009,-0.46199 -0.294983,-0.539001c-0.025024,-0.089996 -0.025024,-0.576996 -0.025024,-0.576996l0.372009,0l0,-7.005997l-0.346985,-0.244003l0,-0.218002l0.346985,0.013l-0.346985,-0.410995l0,-0.385002l-0.455017,-0.262001l0,-0.340996l0.429993,-0.295006l0,-0.448997l0.294983,-0.205002l0,-1.642998l-0.269958,0l-0.149048,-0.257004l0,-0.242996l0.15802,-0.157997l1.351013,0l0,1.209999l0.27002,0l0,0.204994l0.550964,0l0,-0.204994l0.757019,0l0,0.256996l0.437012,0l0,0.244003l0.372009,0l0,0.153l0.263977,0.070999l0,-0.904999l0.210999,-0.384003l0.179016,-0.18l1.80896,0l0,0.205002l2.118042,0l0,-0.268997l1.987976,0l0,0.255997l5.184021,0l0,-0.307999l1.962952,0l0,0.307999l5.248047,0l0,-0.346001l1.924988,0l0,0.346001l5.054993,0l0,-0.333l2.296997,0l0,0.294998l1.835022,0l0,-0.281998l-0.282043,0l0,-0.500999l-0.205994,0l0,-0.423004l0.565002,0l0,-3.239998l-0.372009,0l0,-0.917999l0.167053,0l0,-6.408997l0,-1.296005l-0.449036,-0.448997l0,-0.390999l0.590027,-0.224998l0,-1.007004l-0.162048,-0.042999l0,-0.258003l0.71405,-0.448997l1.052002,-0.315002l1.128967,0l0,-2.925301l-0.430969,-0.3312l0,-0.544395l0.44397,0l0,-0.176903l0.187012,0l-0.036011,-0.133797l-0.145996,0l-0.172974,-0.1735l0,-0.200806l0.492004,-0.283997l0,-0.644699l0.21698,0c0.352966,-2.983002 2.122009,-8.738403 7.427002,-10.611298l0,-0.409103l0.22998,0l0,-0.253998c0,0 -0.411011,0.042702 -0.468018,-0.234802c0,-0.072601 -0.022949,-0.305099 0.243042,-0.412102l0.161987,-0.011597l0,-0.866104l0.133972,0l0,-0.468399l0.161011,0l0,0.4235l0.340027,0l0,-0.744202l-0.186035,0l0,-0.449097l0.359009,0l0,-3.259102l-0.39801,-0.320801l0,-0.256599l0.434021,0l0,-1.021996l0.40802,0.408295l0,0.499001l0.316956,0l0,-1.850899l-0.416992,0l0,-0.326599l0.236023,0l0,-0.9981c0,0 0.534973,-0.843796 0.862,-0.843796l0,-0.308403l-0.281006,-0.145203l0,-0.145195l0.307983,0l0,-0.7845l0.238037,0c0,0 -0.203003,-0.138 -0.225037,-0.269501l-0.005981,-0.301498c0,0 0.083008,-0.147606 0.179993,-0.154007c0.109009,-0.007294 0.127991,-0.006393 0.127991,-0.006393l0,-0.167107c-0.924988,-0.453697 -0.198975,-1.319199 -0.005981,-1.229393l0.025024,-1.599602l0.154968,-0.866104l0.156006,0.866104l0.025024,1.599602c0.191956,-0.089806 0.919006,0.775696 -0.006042,1.229393l0,0.167107c0,0 0.019043,-0.0009 0.127991,0.006393c0.096008,0.006401 0.180054,0.154007 0.180054,0.154007l-0.006042,0.301498c-0.02301,0.1315 -0.224976,0.269501 -0.224976,0.269501l0.237976,0l0,0.7845l0.308044,0l0,0.145195l-0.281006,0.145203l0,0.308403c0.326965,0 0.862,0.843796 0.862,0.843796l0,0.9981l0.235962,0l0,0.326599l-0.416992,0l0,1.850899l0.317017,0l0,-0.499001l0.40802,-0.408295l0,1.021996l0.432983,0l0,0.256599l-0.397034,0.320801l0,3.259102l0.359009,0l0,0.449097l-0.185974,0l0,0.744202l0.339966,0l0,-0.4235l0.160034,0l0,0.468399l0.13501,0l0,0.866104l0.161987,0.011597c0.265991,0.107002 0.242981,0.3395 0.242981,0.412102c-0.057007,0.277504 -0.468018,0.234802 -0.468018,0.234802l0,0.253998l0.230042,0l0,0.409103c5.304993,1.872894 7.073975,7.628296 7.427002,10.611298l0.21698,0l0,0.644699l0.492004,0.283997l0,0.200806l-0.174011,0.1735l-0.144958,0l-0.036011,0.133797l0.187012,0l0,0.176903l0.44397,0l0,0.544395l-0.430969,0.3312l0,2.925301l1.128967,0l1.052002,0.315002l0.713989,0.448997l0,0.258003l-0.161987,0.042999l0,1.007004l0.590027,0.224998l0,0.390999l-0.449036,0.448997l0,1.296005l0,6.408997l0.166992,0l0,0.917999l-0.372009,0l0,3.239998l0.564026,0l0,0.423004l-0.205017,0l0,0.500999l-0.281982,0l0,0.200996l2.554016,0l0,-0.372993l2.295959,0l0,0.372993l5.08905,0l0,-0.324997l1.970947,0l0,0.362999l5.290039,0l0,-0.353996l2.008972,0l0,0.334999l4.661011,0l0,-0.320999l2.530029,0l0,0.297997l10.118958,0l0,-1.852997l-0.296997,-0.223999l-0.013977,-1.197006l0.304993,-0.134995l0,-0.459999l-0.297974,0l0,-1.543007l0.899963,0l0,-0.607994l0.442993,0.006996l-0.278015,-0.373001l-0.142944,-0.172997l-0.019043,-0.382004l0.321045,0.008003l0,-0.487l0.141968,0l0,-4.139999l-0.242981,-0.140999l-0.364014,-0.176003l0,-0.590004l0.606995,0l0,-0.898994l0.176025,0l0,-0.629005l0.290955,0l0.151001,0l0,-0.780998l-0.182007,0l0,-0.267998l0.182007,0l0,-0.334999l0.287048,0l0,0.325996l0.161987,0l0,0.277l-0.161987,0l0,0.450005l0.229004,0l0.267944,-0.431l0,-1.358002l-0.200989,0l0,-0.444l0.30603,0l0,-0.455498l0.22998,0l0,-0.315704l-0.219971,0l0,-0.344398l0.200989,0l0,-0.325302l0.153015,0l-0.03302,-0.123199l0.195007,0l-0.017029,-0.587196l0.283997,-0.385506l0,-0.750397l0.518005,-0.841797l0.105042,0c0,0 0.047974,-0.459206 0.277954,-0.497505c0,-0.019096 0.017029,-0.335999 0.017029,-0.335999c-0.203003,-0.027 -0.294983,-0.395096 -0.010986,-0.516899c0.001953,0.000603 -0.009033,-0.310303 -0.007019,-0.311203c-0.328979,-0.102798 -0.330994,-0.645401 0.119995,-0.6605c0.452026,0.015999 0.450012,0.558502 0.120972,0.6614c0.002014,0.0009 -0.008972,0.311699 -0.006958,0.311104c0.283997,0.121796 0.191956,0.489899 -0.010986,0.516998c0,0 0.016968,0.316803 0.016968,0.335999c0.22998,0.0382 0.278015,0.497398 0.278015,0.497398l0.10498,0l0.518005,0.841904l0,0.750298l0.283997,0.385605l-0.018005,0.587196l0.195984,0l-0.032959,0.123199l0.153015,0l0,0.325203l0.200989,0l0,0.344398l-0.220032,0l0,0.315697l0.230042,0l0,0.455704l0.305969,0l0,0.444l-0.200989,0l0,1.358002l0.268005,0.43l0.229004,0l0,-0.449005l-0.162048,0l0,-0.278l0.162048,0l0,-0.324997l0.286987,0l0,0.334999l0.182007,0l0,0.267998l-0.182007,0l0,0.779999l0.151001,0l0.291016,0l0,0.629005l0.175964,0l0,0.900002l0.606995,0l0,0.588997l-0.363953,0.177002l-0.243042,0.140999l0,4.139l0.142029,0l0,0.487999l0.320984,-0.008003l-0.018982,0.382004l-0.143005,0.171997l-0.278015,0.373001l0.442993,-0.006996l0,0.609001l0.900024,0l0,1.542999l-0.298035,0l0,0.459999l0.304993,0.134995l-0.013977,1.197006l-0.296997,0.223l0,1.494995l1.218018,0l0,-0.346001c0,0 -0.220032,-0.190994 -0.200989,-0.334999c0,0.038002 0.004944,-0.587997 0.004944,-0.587997c0,0 0.048035,-0.195999 0.153015,-0.249001c-0.013977,-0.014 0,-1.287003 0,-1.287003l0.139038,-0.133995c0,0 -0.072021,-0.261002 0.164001,-0.271004c-0.013,0 0.248962,-0.007996 0.165955,0.311005c0,-0.005005 0.239014,0.136993 0.239014,0.136993l0,0.345001l-0.099976,0l0,0.148003l0.161987,0l-0.005005,1.181999l-0.153015,0l0,1.084999l0,1.868004l0.298035,0.189995l0,1.008003l-0.149048,0l0,0.587997l-0.161987,0l0,5.547005l0.473999,0l0,0.912994l0.317017,0l0,0.616005l-0.155029,0l0,0.277l-0.473999,0l0,0.906998l0.183044,0l0,0.649002l-0.176025,0l0,0.567993l-0.161987,0l0,7.103012l0.310974,0l0,0.290985l0.169006,0l0,0.169006l0.156006,0l0,2.415009l-108.792969,0.008987l-0.001038,0z"/>
  </g>
  <g display="inline" id="layer8">
   <g display="inline" id="g3281">
    <g fill="#1a1a1a" display="inline" id="g3293" transform="matrix(0.0855099, 0, 0, 0.0855099, 686.155, 61.8022)">
     <path fill="#1a1a1a" fill-rule="nonzero" id="path3295" d="m221.464554,330.832886a8.917539,7.546121 0 1 1 -17.835068,0a8.917539,7.546121 0 1 1 17.835068,0z"/>
     <path fill="#1a1a1a" fill-rule="evenodd" stroke="#1a1a1a" stroke-width="2.442343" stroke-miterlimit="4" id="path3297" d="m211.469772,325.270538l0.564987,-23.940002l0.901306,23.899017l-1.466293,0.040985l0,0z"/>
     <path fill="#1a1a1a" fill-rule="evenodd" id="path3299" d="m215.529068,336.051544c-0.998093,4.071014 1.654495,29.05899 2.029099,29.154999c30.648407,7.812012 34.768402,34.794983 34.768402,34.794983l8.313019,0.072021l-0.009033,15.229004l-8.734985,0l-0.483994,115.799011l-77.611908,-0.142029l0.158005,-114.798981l-8.339294,0l-0.008606,-16.206024l7.916901,-0.071991c0,0 1.954102,-28.639008 32.588104,-33.793976c0.381195,-0.064026 4.089386,-25.334015 3.091293,-29.405029l6.322708,-0.631989l0.00029,0z"/>
    </g>
    <g display="inline" id="g3301" transform="matrix(0.0855099, 0, 0, 0.0855099, 675.305, 58.2)">
     <path fill="#000000" fill-rule="nonzero" stroke="#000000" stroke-width="0.883883" stroke-miterlimit="4" stroke-dashoffset="0" id="path3303" d="m221.465042,330.832886a8.917539,7.546121 0 1 1 -17.835068,0a8.917539,7.546121 0 1 1 17.835068,0z"/>
     <path fill="#000000" fill-rule="evenodd" stroke="#000000" stroke-width="2.442343" stroke-miterlimit="4" id="path3305" d="m211.470261,325.270538l0.564987,-23.940002l0.901306,23.899017l-1.466293,0.040985l0,0z"/>
     <path fill="#000000" fill-rule="evenodd" stroke="#000000" stroke-width="0.827632px" id="path3307" d="m215.529556,336.051544c-0.998093,4.071014 1.654495,29.05899 2.029099,29.154999c30.648407,7.812012 34.768402,34.794983 34.768402,34.794983l8.313019,0.072021l-0.009033,15.229004l-8.734985,0l-0.483994,115.799011l-77.611908,-0.142029l0.158005,-114.798981l-8.339294,0l-0.008606,-16.206024l7.916901,-0.071991c0,0 1.954102,-28.639008 32.588104,-33.793976c0.381195,-0.064026 4.089386,-25.334015 3.091293,-29.405029l6.322708,-0.631989l0.00029,0z"/>
    </g>
    <path fill="#000000" fill-rule="nonzero" stroke="#000000" stroke-width="0.883883" stroke-miterlimit="4" stroke-dashoffset="0" id="path3310" d="m734.528198,86.443031a0.762537,0.645267 0 1 1 -1.525085,0a0.762537,0.645267 0 1 1 1.525085,0z"/>
    <path fill="#000000" fill-rule="evenodd" stroke="#000000" stroke-width="0.208844" stroke-miterlimit="4" id="path3312" d="m733.673523,85.967468l0.048279,-2.047104l0.077148,2.043602l-0.125427,0.003502z"/>
    <g fill="#1a1a1a" display="inline" id="g3314" transform="matrix(0.0823322, 0, 0, 0.0785421, 706.382, 62.828)">
     <path fill="#1a1a1a" fill-rule="nonzero" id="path3316" d="m226.118881,344.253601a8.917539,7.546121 0 1 1 -17.835098,0a8.917539,7.546121 0 1 1 17.835098,0z"/>
     <path fill="#1a1a1a" fill-rule="evenodd" stroke="#1a1a1a" stroke-width="2.322307" stroke-miterlimit="4" id="path3318" d="m216.124069,338.691254l0.564987,-23.940002l0.901306,23.899017l-1.466293,0.040985l0,0z"/>
     <path fill="#1a1a1a" fill-rule="evenodd" id="path3321" d="m220.183365,349.47226c-0.998093,4.071014 1.654495,29.05899 2.029099,29.154999c30.648407,7.812012 34.768402,34.794983 34.768402,34.794983l8.313019,0.072021l-0.009033,15.229004l-8.734985,0l-0.484009,115.79895l-77.611893,-0.141968l0.158005,-114.798981l-8.339294,0l-0.008606,-16.206024l7.916901,-0.071991c0,0 1.954102,-28.639008 32.588104,-33.793976c0.381195,-0.064026 4.089386,-25.334015 3.091293,-29.405029l6.322708,-0.631989l0.00029,0z"/>
    </g>
    <path fill="#000000" fill-rule="evenodd" stroke="#000000" stroke-width="0.070771px" id="path3323" d="m734.036499,86.996208c-0.085388,0.348068 0.141479,2.484848 0.173523,2.493019c2.620728,0.668007 2.973022,2.975349 2.973022,2.975349l0.710815,0.006104l-0.000732,1.302208l-0.746948,0l-0.041382,9.901962l-6.636536,-0.012154l0.013489,-9.816399l-0.713135,0l-0.000732,-1.385811l0.677002,-0.006096c0,0 0.167114,-2.448883 2.786621,-2.889717c0.032593,-0.005493 0.34967,-2.166344 0.264282,-2.51442l0.54071,-0.054047z"/>
    <path fill="#000000" fill-rule="evenodd" stroke="#000000" stroke-width="0.06956px" id="path3325" d="m743.814087,103.993095c0,0 0.002991,-1.432594 0.000977,-1.4282c-0.187012,-0.130798 -1.230957,-0.210297 -1.230957,-0.210297l0,1.780899l-1.101013,-0.1409l-0.015015,-1.681602c-0.674011,-0.106598 -0.961975,-0.141296 -1.596008,-0.163696l0.012024,1.615295l-1.187012,-0.139198l0,-1.516998c-0.875977,-0.0261 -1.507019,-0.033104 -1.507019,-0.033104l0.020996,1.5112l-1.719971,-0.009499l-1.528015,0l0,-1.604897l-2.373962,0l0.021973,1.623398l-1.505005,-0.006798l0,-1.604904l-2.336975,0.007103l-0.005005,1.622398l-1.515991,-0.007896l0,-1.604904l-2.374023,0l0.01001,1.627304l-1.496033,-0.009903l0,-1.604897l-2.372986,0l0.02002,1.620995l-1.507019,-0.002197l0,-1.604897l-2.374023,0l0.022034,1.625595l-1.505981,-0.004601l0,-1.604897l-2.374023,0l0.01001,1.621002l-1.494995,-0.002205l0,-1.604897l-2.374023,0l0.015991,1.624695l-1.5,-0.0056l0,-1.604897l-2.373962,0l0.021973,1.623497l-1.505981,-0.006798l0,-1.604897l-2.374023,0l0,1.594894l-1.511963,0l0,-1.554901l-9.04303,0l0.074036,26.488007c-0.079041,0.016998 43.941956,-0.138992 44.021973,-0.141006c0,0 9.02301,-0.126999 9.536987,-1.226997c0.031006,-0.479996 0.015015,-23.2173 0.014038,-23.249901l0.000977,0.000099z"/>
    <path fill="#000000" fill-rule="evenodd" stroke="#000000" stroke-width="0.239978px" id="path3056" d="m687.284058,133.673904l-0.010986,-2.863007c0,0 -0.562012,-0.095993 -0.529968,-0.307999c0.031982,-0.21199 0.349976,-0.057999 0.445007,-0.317993c0.304993,-0.833008 -0.14801,-1.443008 -0.960022,-1.456009c-0.895996,0.003006 -1.296021,0.628006 -0.992004,1.462006c0.094971,0.259003 0.414001,0.106003 0.445984,0.317993c0.032043,0.212006 -0.529968,0.307007 -0.529968,0.307007l-0.027039,2.709991l0,0.159012l2.158997,-0.011002l0,0z"/>
   </g>
  </g>
  <g display="inline" id="layer5">
   <g fill="#0d0d0d" display="inline" id="g3843">
    <path fill="#0d0d0d" fill-rule="evenodd" id="path3146" d="m462.026367,134.685303c0,0 -16.949982,0.585999 -17.715973,0.089996c-0.090027,0.044998 -1.553009,1.440994 -2.161011,2.679001c0.02301,-0.067001 -0.765015,-0.089996 -0.765015,-0.089996c0,0 0.597015,-1.738998 0.45401,-2.249008c-0.048004,0.064011 -2.897003,-0.588989 -3.740997,-0.68399c0.063995,0.031998 -0.79599,0.126999 -1.114014,2.625992c0.016022,-0.095001 -0.732971,-0.015991 -0.732971,-0.015991c0,0 0,-2.499008 -0.827026,-2.849014c-0.031982,-0.015991 -10.259979,-1.511993 -13.77298,-2.291992c0,0 -2.416016,1.003006 -3.180023,1.957993c-0.381989,-0.158997 -0.381989,-0.158997 -0.381989,-0.158997c0,0 2.022003,-2.229004 1.942017,-2.944992c-0.048004,-0.016006 0.069,-0.682999 -1.129028,-0.542999c-0.016998,0.011993 -2.886993,1.952988 -3.258972,2.459991l-0.315002,-0.241989c0,0 1.766998,-3.02301 1.069,-3.720001c-0.022003,-0.02301 -1.666016,-2.062004 -2.684998,-1.887001c0.063995,-0.048004 -4.346008,1.368996 -4.346008,1.368996l-0.031006,-0.261993c0,0 2.028992,-1.218002 1.964996,-1.298004c0,0 -2.173981,0.479004 -2.184998,0.659004c-0.033997,-0.157005 -0.044983,-0.202003 -0.044983,-0.202003l3.567993,-3.028c0.337982,-0.315002 4.901001,-3.560997 11.584991,-6.664001c0.661011,-0.306999 9.410004,-5.249001 26.338989,-5.313995c-0.095978,0 18.917023,-1.056 35.26001,12.000999c0,0 1.28299,1.394997 2.341003,2.295998c0.044983,0.135002 -0.15799,0.067001 -0.15799,0.067001c0,0 -2.881012,-1.417999 -3.399017,-0.450005c-0.022003,0 -0.674988,1.531006 -0.066986,2.700996c0.606995,1.171005 1.822998,2.882004 1.822998,2.882004l-0.15802,0.089996c0,0 -2.587982,-2.882004 -3.803986,-2.543991c0.113007,0.044998 -1.306,0.202988 1.914001,3.376999c0.022003,0 -0.203003,0.201996 -0.203003,0.201996c0,0 -2.903992,-2.318008 -4.029999,-2.160995c-0.945007,0.224991 -10.062012,2.679001 -10.062012,2.679001c0,0 -0.787994,1.732986 -0.315002,2.970993c-0.089996,0.022995 -0.472992,0.158005 -0.472992,0.158005c0,0 -1.192993,-2.521011 -1.597992,-2.521011c-0.877991,0.090012 -3.399017,0.720001 -3.399017,0.720001c0,0 0.427002,1.824005 0.810028,2.296005c-0.540009,0.022995 -0.540009,0.044998 -0.540009,0.044998c0,0 -2.115997,-2.205994 -2.476013,-2.205994l-0.001007,0z"/>
    <path fill="#0d0d0d" fill-rule="evenodd" id="path3148" d="m424.523254,117.41964l-3.64679,-13.326576l-0.135071,-2.611298l1.305634,2.521248l3.916931,12.606232l-1.440704,0.810394z"/>
    <path fill="#0d0d0d" fill-rule="evenodd" id="path3150" d="m422.812408,106.074043l-0.270142,-3.556763l1.305664,2.836403l2.971466,11.300575l-0.945465,0.315163l-3.061523,-10.895378z"/>
    <path fill="#0d0d0d" fill-rule="evenodd" id="path3152" d="m428.980469,115.303604l-2.386169,-11.750809l-0.225128,-2.70134l0.990509,2.566277l2.971466,11.525688l-1.350677,0.360184z"/>
    <path fill="#0d0d0d" fill-rule="evenodd" id="path3154" d="m434.788391,113.975304l-1.126007,-7.496101l0.044983,-3.4216l1.126007,3.286598l1.171021,7.6091l-1.216003,0.022003l0,0z"/>
    <path fill="#0d0d0d" fill-rule="evenodd" id="path3156" d="m437.253387,113.292305l-1.018005,-9.7733l0.095001,-2.769699l0.828003,3.088097l1.178009,9.422897l-1.083008,0.032005l0,0z"/>
    <path fill="#0d0d0d" fill-rule="evenodd" id="path3158" d="m447.622375,112.5103l0.105011,-9.341499l0.350006,-2.706001l0.541992,2.610504l0.126984,9.422997l-1.123993,0.014l0,0z"/>
    <path fill="#0d0d0d" fill-rule="evenodd" id="path3160" d="m450.911133,112.146461l0.15918,-5.125526l0.764038,-3.756592l0.636719,3.979439l-0.12735,5.030022l-1.432587,-0.127342z"/>
    <path fill="#0d0d0d" fill-rule="evenodd" id="path3162" d="m458.233307,112.592163l0.986908,-9.009468l0.732208,-2.801521l0.19101,3.215378l-0.955048,8.786613l-0.955078,-0.191002z"/>
    <path fill="#0d0d0d" fill-rule="evenodd" id="path3164" d="m465.96936,114.120262l1.655457,-7.672363l1.273407,-3.470078l-0.318359,3.852104l-1.432587,7.767868l-1.177917,-0.477531z"/>
    <path fill="#0d0d0d" fill-rule="evenodd" id="path3166" d="m468.070496,114.725143l2.196655,-10.601242l0.19101,-2.992538l-1.050568,3.119881l-2.292175,10.251038l0.955078,0.222862z"/>
    <path fill="#0d0d0d" fill-rule="evenodd" id="path3168" d="m472.909485,116.44426l3.406403,-11.237946l1.273438,-2.674194l-0.28653,3.31089l-3.024384,11.333466l-1.368927,-0.732216z"/>
   </g>
  </g>
  <g display="inline" id="layer7">
   <g id="g12775" transform="matrix(0.242944, 0, 0, 0.242944, 424.432, 27.4946)">
    <path fill="#000000" fill-rule="evenodd" stroke="#000000" stroke-width="1px" id="path2236" d="m478.273987,275.917999l2.082001,0.046997l1.822998,-10.113007l0.845001,-3.66098l-1.191986,-0.085999l-0.112,-0.774017l1.493988,-0.050995l1.177002,-7.343994l0.550018,-4.031998l0.479004,4.125l1.233002,7.253006l1.19397,0.043976l0.125,0.835022l-1.223999,-0.091003l3.420013,21.078003l0.238007,146.089996l0,0l-45.285004,-0.005005l0,-146.095001l3.479004,-21.444l-1.080994,0.100006l0.087982,-0.714996l1.09201,-0.088013l1.082001,-5.735001l0.678009,-4.809998l0.385986,4.843994l1.040009,5.448013l1.086975,0.078003l-0.043976,0.580994l-0.903015,0.092987l1.085999,4.351013l3.35202,10.053986l2.077972,-0.015991l9.505005,-33.832001l10.227997,33.871002l0,0z"/>
    <path fill="#000000" fill-rule="evenodd" stroke="#000000" stroke-width="1px" id="path7339" d="m758.393005,275.746002l2.877991,0l1.822998,-10.205994l0.846008,-3.661011l-1.192993,-0.085999l-0.112,-0.773987l1.494019,-0.051025l1.177002,-7.343994l0.549988,-4.031998l0.479004,4.125l1.233948,7.253006l1.194031,0.044006l0.125,0.834991l-1.224976,-0.091003l3.420959,21.078003l0.237,146.089996l0,0l-45.284973,-0.005005l0,-146.095001l3.47998,-21.444l-1.08197,0.100006l0.088989,-0.714996l1.091003,-0.088013l1.083008,-5.734985l0.677002,-4.809998l0.386963,4.843002l1.039001,5.44899l1.088013,0.078003l-0.044983,0.580994l-0.903015,0.093018l1.085999,4.350983l2.867981,10.507019l2.671997,0.014984l9.39502,-34.315994l9.432007,34.011002l0,0z"/>
    <path fill="#000000" fill-rule="evenodd" stroke="#000000" stroke-width="1px" id="path7342" d="m726.106995,307.04599l-107.416992,0.032013l0,-2.062988c0,0 0.656006,-4.156006 -1.937988,-3.937012c0.093994,-0.031006 -2.343994,-0.375 -2.125,3.406006l-5.218994,-0.062012l-0.062012,-3.218994c0,0 3.562012,-4.187988 -1.218994,-5.687988c-2.42804,0.980988 -2.410034,3.297974 -1.002014,5.375c0.666992,0.982971 0.252991,2.524994 0.252014,3.593994l-5.312012,0.031006c0,0 0.167969,-3.380005 -1.312988,-3.375c0,0 -3.278015,-0.830017 -2.528015,4.857971l-108.378998,0l0,16.030029l241.564972,0l0,-15.026001l-5.302979,0.043976l0,0z"/>
    <g display="inline" id="g13443">
     <path fill="none" stroke="#000000" stroke-width="3.3" stroke-miterlimit="4" id="path8345" d="m448.627014,323.112c-69.08374,68.985168 -103.653046,100.940918 -192.037506,103.687805c0,0 -69.202682,3.957642 -108.012344,-25.531616c0,0.176819 0,0.176819 0,0.176819"/>
     <path fill="none" stroke="#000000" stroke-width="3.3" stroke-miterlimit="4" id="path8336" d="m447.55835,319.513306c0,0 -98.419525,91.417847 -191.257507,101.944092c0,0 -48.298859,4.089447 -109.048859,-26.410522"/>
     <path fill="none" stroke="#000000" stroke-width="1px" id="path11254" d="m422.189514,341.0495l-7.375,15.5"/>
     <path fill="none" stroke="#000000" stroke-width="1px" id="path11256" d="m411.064514,348.2995l15,-1"/>
     <path fill="none" stroke="#000000" stroke-width="1px" id="path11258" d="m413.064514,348.7995l-5.5,13.5l0,0l0.5,-0.375"/>
     <path fill="none" stroke="#000000" stroke-width="1px" id="path11262" d="m385.002014,369.112l15.5,-1.125"/>
     <path fill="none" stroke="#000000" stroke-width="1px" id="path11264" d="m381.814514,370.9245l-14.375,22.875"/>
     <path fill="none" stroke="#000000" stroke-width="1px" id="path11266" d="m364.752014,382.112l21,1.125"/>
     <path fill="none" stroke="#000000" stroke-width="1px" id="path11268" d="m362.002014,382.862l-14,23.625"/>
     <path fill="none" stroke="#000000" stroke-width="1px" id="path11270" d="m346.627014,390.987l18.375,7"/>
     <path fill="none" stroke="#000000" stroke-width="1px" id="path11272" d="m343.377014,393.237l-14.625,21.625"/>
     <path fill="none" stroke="#000000" stroke-width="1px" id="path11274" d="m327.752014,400.237l18.625,8.25"/>
     <path fill="none" stroke="#000000" stroke-width="1px" id="path11276" d="m326.002014,401.612l-16,18.875"/>
     <path fill="none" stroke="#000000" stroke-width="1px" id="path11278" d="m309.377014,408.362l16.75,7.375"/>
     <path fill="none" stroke="#000000" stroke-width="1px" id="path11280" d="m303.627014,410.862l-12.375,13.625"/>
     <path fill="none" stroke="#000000" stroke-width="1px" id="path11282" d="m289.877014,414.987l14.375,6.375"/>
     <path fill="none" stroke="#000000" stroke-width="1px" id="path11284" d="m284.627014,416.987c-0.5,0 -11.5,9 -11.5,9"/>
     <path fill="none" stroke="#000000" stroke-width="1px" id="path11286" d="m272.377014,419.112l12.25,5.875"/>
     <path fill="none" stroke="#000000" stroke-width="1px" id="path11288" d="m268.752014,420.737l-9,6.5"/>
     <path fill="none" stroke="#000000" stroke-width="2" stroke-miterlimit="4" id="path11290" d="m258.502014,421.987l12.75,5.375"/>
     <path fill="none" stroke="#000000" stroke-width="2" stroke-miterlimit="4" id="path12267" d="m421.002014,349.987l0,87.75"/>
     <path fill="none" stroke="#000000" stroke-width="2" stroke-miterlimit="4" id="path12269" d="m402.252014,355.487l0,82.75"/>
     <path fill="none" stroke="#000000" stroke-width="2" stroke-miterlimit="4" id="path12271" d="m383.502014,367.237l0,70.875"/>
     <path fill="none" stroke="#000000" stroke-width="2" stroke-miterlimit="4" id="path12273" d="m364.252014,380.237l0,57.5"/>
     <path fill="none" stroke="#000000" stroke-width="2" stroke-miterlimit="4" id="path12275" d="m344.752014,390.987l0,46.75"/>
     <path fill="none" stroke="#000000" stroke-width="2" stroke-miterlimit="4" id="path12277" d="m326.752014,398.987l0,38.5l0.483246,-0.279022l0.016815,0.029022"/>
     <path fill="none" stroke="#000000" stroke-width="2" stroke-miterlimit="4" id="path12279" d="m307.752014,406.987l0,30.75"/>
     <path fill="none" stroke="#000000" stroke-width="2" stroke-miterlimit="4" id="path12281" d="m289.502014,413.487l0,24.75"/>
     <path fill="none" stroke="#000000" stroke-width="2" stroke-miterlimit="4" id="path12283" d="m270.502014,418.737l0,19.75"/>
     <path fill="none" stroke="#000000" stroke-width="1px" id="path12376" d="m403.314514,355.9245l13.9375,-0.875"/>
     <path fill="none" stroke="#000000" stroke-width="1px" id="path12378" d="m398.002014,359.4245l-11.5,20.875"/>
     <path fill="none" stroke="#000000" stroke-width="2" stroke-miterlimit="4" id="path7591" d="m234.376999,437.390625l0,-17.125"/>
     <path fill="none" stroke="#000000" stroke-width="2" stroke-miterlimit="4" id="path7593" d="m214.501999,437.390625l0,-19.625"/>
     <path fill="none" stroke="#000000" stroke-width="2" stroke-miterlimit="4" id="path7595" d="m195.751999,437.015625l0,-23.625"/>
     <path fill="none" stroke="#000000" stroke-width="2" stroke-miterlimit="4" id="path7597" d="m176.876999,436.390625l0,-28.625l0.5,0"/>
     <path fill="none" stroke="#000000" stroke-width="2" stroke-miterlimit="4" id="path7599" d="m158.626999,435.640625l0,-35.375"/>
     <path fill="none" stroke="#000000" stroke-width="1px" id="path8572" d="m235.001999,425.390625l14.75,-3.375"/>
     <path fill="none" stroke="#000000" stroke-width="1px" id="path8574" d="m235.126999,420.015625l15.75,6.875"/>
     <path fill="none" stroke="#000000" stroke-width="1px" id="path8576" d="m215.251999,423.890625l20.5,-2.75"/>
     <path fill="none" stroke="#000000" stroke-width="1px" id="path8578" d="m215.501999,417.640625l19.25,9.5l0,-0.125l0,0"/>
     <path fill="none" stroke="#000000" stroke-width="1px" id="path8580" d="m196.001999,421.140625l18,-3"/>
     <path fill="none" stroke="#000000" stroke-width="1px" id="path8582" d="m196.251999,413.640625l17.25,11.25"/>
     <path fill="none" stroke="#000000" stroke-width="1px" id="path8584" d="m177.251999,416.765625l18.25,-3.5"/>
     <path fill="none" stroke="#000000" stroke-width="1px" id="path8586" d="m177.376999,407.515625l18,13.75l0,0"/>
     <path fill="none" stroke="#000000" stroke-width="1px" id="path8588" d="m158.876999,409.140625l17.5,-1.5"/>
     <path fill="none" stroke="#000000" stroke-width="1px" id="path8590" d="m159.376999,400.140625l16.75,15.75"/>
    </g>
    <g display="inline" id="g12056" transform="matrix(-1, 0, 0, 1, 1847.05, -108.696)">
     <g display="inline" id="g11860">
      <path fill="none" stroke="#000000" stroke-width="3.3" stroke-miterlimit="4" id="path11862" d="m1080.38501,432.218994c-69.08374,68.985168 -103.653076,100.940918 -192.037476,103.687805c0,0 -69.202698,3.957642 -108.012329,-25.531616"/>
      <path fill="none" stroke="#000000" stroke-width="3.3" stroke-miterlimit="4" id="path11864" d="m1079.316406,428.6203c0,0 -98.419556,91.417847 -191.257568,101.944092c0,0 -48.298828,4.089417 -109.048828,-26.410522"/>
      <path fill="none" stroke="#000000" stroke-width="1px" id="path11866" d="m1053.94751,450.156494l-7.375,15.5"/>
      <path fill="none" stroke="#000000" stroke-width="1px" id="path11868" d="m1042.82251,457.406494l15,-1"/>
      <path fill="none" stroke="#000000" stroke-width="1px" id="path11870" d="m1044.82251,457.906494l-5.5,13.5l0,0l0.5,-0.375"/>
      <path fill="none" stroke="#000000" stroke-width="1px" id="path11872" d="m1016.76001,478.218994l15.5,-1.125"/>
      <path fill="none" stroke="#000000" stroke-width="1px" id="path11874" d="m1013.57251,480.031494l-14.375,22.875"/>
      <path fill="none" stroke="#000000" stroke-width="1px" id="path11876" d="m996.51001,491.218994l21,1.125"/>
      <path fill="none" stroke="#000000" stroke-width="1px" id="path11878" d="m993.76001,491.968994l-14,23.625"/>
      <path fill="none" stroke="#000000" stroke-width="1px" id="path11880" d="m978.38501,500.093994l18.375,7"/>
      <path fill="none" stroke="#000000" stroke-width="1px" id="path11882" d="m975.13501,502.343994l-14.625,21.625"/>
      <path fill="none" stroke="#000000" stroke-width="1px" id="path11884" d="m959.51001,509.343994l18.625,8.25"/>
      <path fill="none" stroke="#000000" stroke-width="1px" id="path11886" d="m957.76001,510.718994l-16,18.875"/>
      <path fill="none" stroke="#000000" stroke-width="1px" id="path11888" d="m941.13501,517.468994l16.75,7.375"/>
      <path fill="none" stroke="#000000" stroke-width="1px" id="path11890" d="m935.38501,519.968994l-12.375,13.625"/>
      <path fill="none" stroke="#000000" stroke-width="1px" id="path11892" d="m921.63501,524.093994l14.375,6.375"/>
      <path fill="none" stroke="#000000" stroke-width="1px" id="path11894" d="m916.38501,526.093994c-0.5,0 -11.5,9 -11.5,9"/>
      <path fill="none" stroke="#000000" stroke-width="1px" id="path11896" d="m904.13501,528.218994l12.25,5.875"/>
      <path fill="none" stroke="#000000" stroke-width="1px" id="path11898" d="m900.51001,529.843994l-9,6.5"/>
      <path fill="none" stroke="#000000" stroke-width="2" stroke-miterlimit="4" id="path11900" d="m890.26001,531.093994l12.75,5.375"/>
      <path fill="none" stroke="#000000" stroke-width="2" stroke-miterlimit="4" id="path11902" d="m1052.76001,459.093994l0,87.75"/>
      <path fill="none" stroke="#000000" stroke-width="2" stroke-miterlimit="4" id="path11904" d="m1034.01001,464.593994l0,82.75"/>
      <path fill="none" stroke="#000000" stroke-width="2" stroke-miterlimit="4" id="path11906" d="m1015.26001,476.343994l0,70.875"/>
      <path fill="none" stroke="#000000" stroke-width="2" stroke-miterlimit="4" id="path11908" d="m996.01001,489.343994l0,57.5"/>
      <path fill="none" stroke="#000000" stroke-width="2" stroke-miterlimit="4" id="path11910" d="m976.51001,500.093994l0,46.75"/>
      <path fill="none" stroke="#000000" stroke-width="2" stroke-miterlimit="4" id="path11912" d="m958.51001,508.093994l0,38.5l0.483276,-0.279053l0.016785,0.029053"/>
      <path fill="none" stroke="#000000" stroke-width="2" stroke-miterlimit="4" id="path11914" d="m939.51001,516.093994l0,30.75"/>
      <path fill="none" stroke="#000000" stroke-width="2" stroke-miterlimit="4" id="path11916" d="m921.26001,522.593994l0,24.75"/>
      <path fill="none" stroke="#000000" stroke-width="2" stroke-miterlimit="4" id="path11918" d="m902.26001,527.843994l0,19.75"/>
      <path fill="none" stroke="#000000" stroke-width="1px" id="path11920" d="m1035.07251,465.031494l13.9375,-0.875"/>
      <path fill="none" stroke="#000000" stroke-width="1px" id="path11922" d="m1029.76001,468.531494l-11.5,20.875"/>
      <path fill="none" stroke="#000000" stroke-width="2" stroke-miterlimit="4" id="path11924" d="m866.13501,546.49762l0,-17.125"/>
      <path fill="none" stroke="#000000" stroke-width="2" stroke-miterlimit="4" id="path11926" d="m846.26001,546.49762l0,-19.625"/>
      <path fill="none" stroke="#000000" stroke-width="2" stroke-miterlimit="4" id="path11928" d="m827.51001,546.12262l0,-23.625"/>
      <path fill="none" stroke="#000000" stroke-width="2" stroke-miterlimit="4" id="path11930" d="m808.63501,545.49762l0,-28.625l0.5,0"/>
      <path fill="none" stroke="#000000" stroke-width="2" stroke-miterlimit="4" id="path11932" d="m790.38501,544.74762l0,-35.375"/>
      <path fill="none" stroke="#000000" stroke-width="1px" id="path11934" d="m866.76001,534.49762l14.75,-3.375"/>
      <path fill="none" stroke="#000000" stroke-width="1px" id="path11936" d="m866.88501,529.12262l15.75,6.875"/>
      <path fill="none" stroke="#000000" stroke-width="1px" id="path11938" d="m847.01001,532.99762l20.5,-2.75"/>
      <path fill="none" stroke="#000000" stroke-width="1px" id="path11940" d="m847.26001,526.74762l19.25,9.5l0,-0.125l0,0"/>
      <path fill="none" stroke="#000000" stroke-width="1px" id="path11942" d="m827.76001,530.24762l18,-3"/>
      <path fill="none" stroke="#000000" stroke-width="1px" id="path11944" d="m828.01001,522.74762l17.25,11.25"/>
      <path fill="none" stroke="#000000" stroke-width="1px" id="path11946" d="m809.01001,525.87262l18.25,-3.5"/>
      <path fill="none" stroke="#000000" stroke-width="1px" id="path11948" d="m809.13501,516.62262l18,13.75l0,0"/>
      <path fill="none" stroke="#000000" stroke-width="1px" id="path11950" d="m790.63501,518.24762l17.5,-1.5"/>
      <path fill="none" stroke="#000000" stroke-width="1px" id="path11952" d="m791.13501,509.24762l16.75,15.75"/>
     </g>
     <path fill="none" stroke="#000000" stroke-width="2.137787" stroke-miterlimit="4" id="path11954" d="m752.865906,504.2565l-63.120239,38.068939"/>
     <path fill="none" stroke="#000000" stroke-width="2.137787" stroke-miterlimit="4" id="path11956" d="m755.429138,506.377808l-59.808777,36.941345"/>
    </g>
    <path fill="#000000" fill-rule="evenodd" stroke="#000000" stroke-width="1px" id="path2241" d="m258.52301,439.390015l-0.044006,-11.932007c0,0 -2.343018,-0.39801 -2.209991,-1.282013c0.132996,-0.884003 1.460999,-0.242981 1.855988,-1.325989c1.268005,-3.472015 -0.618988,-6.01001 -4,-6.063995c-3.735992,0.011993 -5.401001,2.615997 -4.134003,6.088989c0.395996,1.082001 1.723999,0.44101 1.856003,1.325012c0.132996,0.884003 -2.209,1.281982 -2.209,1.281982l-0.111008,11.291992l0,0.663025l8.996017,-0.046997l0,0z"/>
    <path fill="#000000" fill-rule="evenodd" stroke="#000000" stroke-width="1px" id="path2249" d="m965.414978,439.338989l-0.044006,-11.931976c0,0 -2.34198,-0.39801 -2.208984,-1.282013c0.132019,-0.884003 1.460999,-0.243011 1.856018,-1.325012c1.266968,-3.472992 -0.619019,-6.010986 -4.000977,-6.065002c-3.735046,0.012024 -5.401001,2.616028 -4.133057,6.08902c0.39502,1.082001 1.723022,0.441986 1.856018,1.325989c0.132996,0.884003 -2.209961,1.281006 -2.209961,1.281006l-0.110046,11.291992l0,0.662994l8.994995,-0.046997l0,0z"/>
    <path fill="#000000" fill-rule="evenodd" stroke="#000000" stroke-width="0.904122" stroke-miterlimit="4" id="path10593" d="m118.788002,439.481995l313.507011,0.045013l0.001984,-1.778015l0,0c-0.027008,0 -278.888,-0.589996 -313.525993,-0.613007l0.016998,2.346008l0,0z"/>
    <path fill="#000000" fill-rule="evenodd" stroke="#000000" stroke-width="0.904122" stroke-miterlimit="4" id="path2253" d="m118.816002,428.688995l314.048012,0l0,5.962006l-314.046013,0l-0.001999,-5.962006l0,0z"/>
    <g display="inline" id="g2268" transform="matrix(3.20753, 0, 0, 1, -1684.55, 162.764)">
     <path fill="#000000" fill-rule="evenodd" stroke="#000000" stroke-width="1px" id="path2264" d="m769.465271,266.299011l174.655396,0l0,6.187164l-174.832153,0l0.176758,-6.187164z"/>
     <path fill="#000000" fill-rule="evenodd" stroke="#000000" stroke-width="1px" id="path2266" d="m943.862976,275.076996c-0.015991,0 -175.063965,-0.222992 -175.063965,-0.222992l0.013977,2.067993l175.049011,0l0.000977,-1.845001l0,0z"/>
    </g>
    <path fill="#000000" fill-rule="evenodd" stroke="#000000" stroke-width="1px" id="path2276" d="m712.377014,428.76532l73.375,0l0,41.5l-73.75,0l0.375,-41.5z"/>
    <path fill="#000000" fill-rule="evenodd" stroke="#000000" stroke-width="1px" id="path2280" d="m431.252014,428.76532l73.375,0l0,41.5l-73.75,0l0.375,-41.5z"/>
    <g display="inline" id="g4241">
     <path fill="#000000" fill-rule="evenodd" stroke="#000000" stroke-width="1px" id="path2291" d="m498.272491,432.185303l94.405975,-47.05127l2.805176,5.568726l-94.464172,47.040375l-2.746979,-5.557831z"/>
     <path fill="none" stroke="#000000" stroke-width="3" stroke-miterlimit="4" id="path2296" d="m498.82782,460.378662c0.068604,0.011993 57.374634,-47.433136 95.322876,-66.831238l2.650635,-1.354919"/>
     <path fill="none" stroke="#000000" stroke-width="2.9" stroke-miterlimit="4" id="path3270" d="m508.862579,451.719025l-9.164154,-15.880341l17.205933,6.707031l-5.576324,-11.477814l16.299286,3.880096l-5.457031,-11.056946l15.133301,3.818939l-4.491211,-9.414948l14.245667,2.730499l-3.802246,-7.635101l11.816406,1.619812l-3.390137,-5.816132l10.789612,1.045013l-2.798462,-5.024628l9.36731,0.56839l-2.206787,-4.233063l8.537659,0.290344l-3.152466,-6.131958l0,0"/>
    </g>
    <g display="inline" id="g4247" transform="matrix(-1, 0, 0, 1, 1209.68, 143.817)">
     <path fill="#000000" fill-rule="evenodd" stroke="#000000" stroke-width="1px" id="path4249" d="m492.404358,287.504303l94.406006,-47.051285l2.805176,5.568726l-94.464203,47.04039l-2.746979,-5.557831z"/>
     <path fill="none" stroke="#000000" stroke-width="3" stroke-miterlimit="4" id="path4251" d="m492.959686,315.697662c0.068604,0.011993 57.374664,-47.433136 95.322906,-66.831223l2.650635,-1.354935"/>
     <path fill="none" stroke="#000000" stroke-width="2.9" stroke-miterlimit="4" id="path4253" d="m502.994446,307.038025l-9.164154,-15.880341l17.205933,6.707031l-5.576324,-11.477814l16.299316,3.880096l-5.457031,-11.056946l15.133301,3.818939l-4.491211,-9.414948l14.245667,2.730499l-3.802246,-7.635101l11.816406,1.619812l-3.390137,-5.816132l10.789612,1.045013l-2.798462,-5.024628l9.36731,0.56839l-2.206787,-4.233063l8.537659,0.290344l-3.152466,-6.131958l0,0"/>
    </g>
    <path fill="#000000" fill-rule="evenodd" stroke="#000000" stroke-width="0.205521" stroke-miterlimit="4" id="path12772" d="m133.360001,346.296997c0.343994,-0.151001 0.615005,-0.552002 0.615005,-0.970001l0,0c0,-0.553986 -0.425003,-1.003998 -0.950012,-1.003998c-0.523987,0 -0.949997,0.450012 -0.949997,1.003998c0,0.43399 0.262009,0.804993 0.666,0.96701l-0.095993,5.621979l-1.591003,0.02301l0,1.07901l0.595993,0c0,0 0.131012,1.639008 -0.181,2.843994c-4.124992,10.75 -7.93399,12.057007 -7.93399,12.057007l-4.649002,-0.045013l-2.242004,4.294006l-0.046997,14.727997l-2.389,0.026001l-0.032997,3.307007l2.468994,0l0,34.494995l-2.739998,7.093994l0.087997,35.472992l0,0l37.667,-0.000977l-0.088989,-35.938019l-2.828003,-7.093994l0,-34.029999l2.468994,0l-0.033005,-3.307007l-2.388992,-0.026001l-0.046997,-14.727997l-1.977005,-4.106995l-4.100998,-0.141998c0,0 -3.311005,-2.028992 -7.986008,-12.210999c-0.119995,-1.859009 0.013,-2.696991 -0.007996,-2.713013l0,0l0.593002,0.008026l-0.011002,-1.109009l-1.612991,0l-0.280014,-5.595001l0.001007,-0.001007z"/>
    <path fill="#000000" fill-rule="evenodd" stroke="#000000" stroke-width="0.205521" stroke-miterlimit="4" id="path12108" d="m1081.359985,346.296997c0.339966,-0.151001 0.619995,-0.552002 0.619995,-0.970001l0,0c0,-0.553986 -0.429932,-1.003998 -0.949951,-1.003998c-0.530029,0 -0.950073,0.450012 -0.950073,1.003998c0,0.43399 0.26001,0.804993 0.660034,0.96701l-0.089966,5.621979l-1.599976,0.02301l0,1.07901l0.599976,0c0,0 0.130005,1.639008 -0.180054,2.843994c-4.130005,10.75 -7.939941,12.057007 -7.939941,12.057007l-4.640015,-0.045013l-2.25,4.294006l-0.040039,14.727997l-2.390015,0.026001l-0.029907,3.307007l2.459961,0l0,34.494995l-2.73999,7.093994l0.089966,35.472992l0,0l37.670044,-0.000977l-0.090088,-35.938019l-2.829956,-7.093994l0,-34.029999l2.469971,0l-0.029907,-3.307007l-2.390015,-0.026001l-0.050049,-14.727997l-1.969971,-4.106995l-4.109985,-0.141998c0,0 -3.310059,-2.028992 -7.97998,-12.210999c-0.119995,-1.859009 0.009888,-2.696991 -0.01001,-2.713013l0,0l0.589966,0.008026l-0.01001,-1.109009l-1.609985,0l-0.280029,-5.595001l0,-0.001007z"/>
   </g>
  </g>
  <g display="inline" id="layer4">
   <path fill="#000000" fill-rule="evenodd" stroke="#000000" stroke-width="0.071779px" id="path2912" d="m405.483063,121.660988l10.99585,0l0,-1.573708l-1.089508,0l0,-1.29126l-1.250885,0l0,-2.945679l-0.763184,-0.440605l0,-4.280548l0.722839,-0.504387l0,-0.504402l-0.786865,-0.484222l0,-0.443871l0.009979,-0.323677c0,0 0.014313,-0.271057 -0.242523,-0.285332c0.014313,-0.014297 0.156921,-0.45652 -0.199738,-0.613457c0.042816,0 -0.242523,-29.6315 -0.242523,-29.6315c0,0 -0.194885,-0.153862 -0.318573,-0.183929c0.061798,-0.030075 0.347107,-2.455368 1.031891,-3.026039c0.000488,-0.0513 -0.002991,-0.103889 -0.002991,-0.103889l-0.1362,-0.010094l0,-0.171486l0.166443,-0.070625l0,-0.141235c0,0 -0.680939,-0.055481 -0.807007,-0.327866c-0.005005,-0.025215 -0.277435,-1.376999 -0.958374,-1.52327c0.032501,-0.003395 -0.479156,-0.004997 -0.535034,-0.003899c-0.055908,0.001198 -0.580994,0.005104 -0.535034,0.006203c-0.559814,0.078987 -0.953308,1.498062 -0.958344,1.523277c-0.126099,0.272369 -0.807037,0.327858 -0.807037,0.327858l0,0.141235l0.166443,0.070618l0,0.171494l-0.1362,0.010086c0,0 -0.003998,0.052589 -0.002991,0.103897c0.684784,0.570663 0.970123,2.995964 1.031891,3.026031c-0.123688,0.030075 -0.318573,0.183929 -0.318573,0.183929c0,0 -0.285309,29.6315 -0.242523,29.6315c-0.356659,0.156929 -0.213989,0.599205 -0.199707,0.613464c-0.256805,0.014297 -0.242554,0.285332 -0.242554,0.285332l0.01001,0.323677l0,0.443871l-0.786865,0.484222l0,0.504395l0.722809,0.504395l0,4.28054l-0.763153,0.440605l0,2.945679l-1.250916,0l0,1.29126l-1.089508,0l0,1.573715l10.99585,0"/>
   <path fill="#000000" fill-rule="evenodd" stroke="#000000" stroke-width="0.071779px" id="path2914" d="m410.177002,72.972603l-0.996002,-0.009003c0,0 0.286987,-0.385803 0.322998,-0.619102c0.054016,-0.233299 0.368011,-0.278198 0.412994,-0.448601c0,0.053802 0.269012,-1.686798 0.386017,-1.758598c0.115997,-0.0718 -0.108002,-0.098701 -0.108002,-0.098701c0,0 -0.072021,0.1884 -0.188995,0.197403c-0.107025,0.009003 -0.206024,-0.520401 -0.206024,-0.520401l-0.009003,-0.592201l0.081024,-0.053795l0.018005,-0.179504l0.286987,-0.062798c0,0 0.117004,0.017998 0.214996,0.107697c0.009003,0 0.126007,-0.134598 0.234009,-0.107697c0.097992,0.009003 0.035004,-0.358803 0.035004,-0.358803l-0.305023,-0.017998c0,0 0.197998,-0.924103 0.654999,-0.987c0.009003,0 -0.010986,-0.122704 0.018005,-0.134499c0.083008,-0.033699 0.143005,-0.015503 0.162018,0c0.013,0.0112 0.018005,0.1884 0.018005,0.1884c0,0 0.178986,0.125595 0.268982,0.251198c-0.009003,-0.053802 0.152008,0.251198 0.152008,0.251198c0,0 0.091003,0.011604 0.098999,0.018005c0.022003,0.017799 -0.001007,0.175194 -0.009003,0.197395c-0.003998,0.012299 -0.223999,0.053802 -0.223999,0.053802l-0.13501,0.0718l-0.062988,0.035896l-0.018005,0.457603l0.216003,0.107597l0.036011,0.0718c0,0 0.196991,-0.020996 0.322998,0c0.026978,0.004501 0.142975,0.197403 0.106995,0.385803c-0.018005,0.1884 0.080994,0.475601 0.080994,0.475601l0.126007,0.287094l0.080994,0.349899l0.187988,0.044907l0.072021,0.134499l-0.009003,0.116699l-0.216003,0.089699l-0.475006,2.027702l-0.144012,-0.053802l0.521027,-2.018799c0,0 -0.117004,0.009003 -0.171021,-0.0448c-0.053986,-0.053802 -0.286987,-0.592201 -0.277985,-0.708801c-0.018005,-0.017998 -0.089996,-0.026901 -0.089996,-0.026901l0,0.242203l0.062988,0.035896l-0.009003,1.139503l-0.134003,0.601097l-0.260986,0.027c0,0 -0.080017,0.197304 -0.027008,0.251198c0,0.017906 0.368011,0.035904 0.359009,0.4217c-0.071014,-0.017998 -1.462006,0.179405 -1.462006,0.161507l0,0z"/>
  </g>
  <g display="inline" id="layer3">
   <g display="inline" id="g3766">
    <path fill="#000000" fill-rule="nonzero" id="path2836" d="m364.155121,55.461742a2.291585,2.291585 0 1 1 -4.583191,0a2.291585,2.291585 0 1 1 4.583191,0z"/>
    <path fill="#000000" fill-rule="nonzero" id="path2838" d="m355.355133,57.170143a2.291585,2.291585 0 1 1 -4.583191,0a2.291585,2.291585 0 1 1 4.583191,0z"/>
    <path fill="#000000" fill-rule="nonzero" id="path2840" d="m348.289124,59.921341a2.291585,2.291585 0 1 1 -4.583191,0a2.291585,2.291585 0 1 1 4.583191,0z"/>
    <path fill="#000000" fill-rule="nonzero" id="path2842" d="m341.707123,64.129044a2.291585,2.291585 0 1 1 -4.583191,0a2.291585,2.291585 0 1 1 4.583191,0z"/>
    <path fill="#000000" fill-rule="nonzero" id="path2844" d="m336.31311,69.36174a2.291585,2.291585 0 1 1 -4.58316,0a2.291585,2.291585 0 1 1 4.58316,0z"/>
    <path fill="#000000" fill-rule="nonzero" id="path2846" d="m331.943115,75.565437a2.291585,2.291585 0 1 1 -4.58316,0a2.291585,2.291585 0 1 1 4.58316,0z"/>
    <path fill="#000000" fill-rule="nonzero" id="path2848" d="m328.707123,82.68615a2.291585,2.291585 0 1 1 -4.583191,0a2.291585,2.291585 0 1 1 4.583191,0z"/>
    <path fill="#000000" fill-rule="nonzero" id="path2850" d="m326.980133,90.238449a2.291585,2.291585 0 1 1 -4.583191,0a2.291585,2.291585 0 1 1 4.583191,0z"/>
    <path fill="#000000" fill-rule="nonzero" id="path2852" d="m326.441132,97.898636a2.291585,2.291585 0 1 1 -4.583191,0a2.291585,2.291585 0 1 1 4.583191,0z"/>
    <path fill="#000000" fill-rule="nonzero" id="path2854" d="m327.736115,105.774643a2.291585,2.291585 0 1 1 -4.58316,0a2.291585,2.291585 0 1 1 4.58316,0z"/>
    <path fill="#000000" fill-rule="nonzero" id="path2856" d="m330.217133,113.111145a2.291585,2.291585 0 1 1 -4.583191,0a2.291585,2.291585 0 1 1 4.583191,0z"/>
    <path fill="#000000" fill-rule="nonzero" id="path2858" d="m334.371124,120.339729a2.291585,2.291585 0 1 1 -4.583191,0a2.291585,2.291585 0 1 1 4.583191,0z"/>
    <path fill="#000000" fill-rule="nonzero" id="path2860" d="m340.575134,126.813148a2.291585,2.291585 0 1 1 -4.583191,0a2.291585,2.291585 0 1 1 4.583191,0z"/>
    <path fill="#000000" fill-rule="nonzero" id="path2862" d="m347.533112,131.722137a2.291585,2.291585 0 1 1 -4.58316,0a2.291585,2.291585 0 1 1 4.58316,0z"/>
    <path fill="#000000" fill-rule="nonzero" id="path2864" d="m356.621094,135.228546a2.291585,2.291585 0 1 1 -4.58316,0a2.291585,2.291585 0 1 1 4.58316,0z"/>
    <path fill="#000000" fill-rule="nonzero" id="path2866" d="m367.036133,136.087433a2.291585,2.291585 0 1 1 -4.58316,0a2.291585,2.291585 0 1 1 4.58316,0z"/>
    <path fill="#000000" fill-rule="nonzero" id="path2868" d="m376.097137,135.579437a2.291585,2.291585 0 1 1 -4.583191,0a2.291585,2.291585 0 1 1 4.583191,0z"/>
    <path fill="#000000" fill-rule="nonzero" id="path2870" d="m385.619141,132.423447a2.291585,2.291585 0 1 1 -4.583191,0a2.291585,2.291585 0 1 1 4.583191,0z"/>
    <path fill="#000000" fill-rule="nonzero" id="path2872" d="m393.548126,127.190742a2.291585,2.291585 0 1 1 -4.583191,0a2.291585,2.291585 0 1 1 4.583191,0z"/>
    <path fill="#000000" fill-rule="nonzero" id="path2874" d="m399.482147,120.879242a2.291585,2.291585 0 1 1 -4.583191,0a2.291585,2.291585 0 1 1 4.583191,0z"/>
    <path fill="#000000" fill-rule="nonzero" id="path2876" d="m403.852142,113.920326a2.291585,2.291585 0 1 1 -4.583191,0a2.291585,2.291585 0 1 1 4.583191,0z"/>
    <path fill="#000000" fill-rule="nonzero" id="path2878" d="m406.603088,106.260132a2.291585,2.291585 0 1 1 -4.583191,0a2.291585,2.291585 0 1 1 4.583191,0z"/>
    <path fill="#000000" fill-rule="nonzero" id="path2880" d="m407.952148,98.599945a2.291585,2.291585 0 1 1 -4.583191,0a2.291585,2.291585 0 1 1 4.583191,0z"/>
    <path fill="#000000" fill-rule="nonzero" id="path2882" d="m407.790131,90.670044a2.291585,2.291585 0 1 1 -4.583191,0a2.291585,2.291585 0 1 1 4.583191,0z"/>
    <path fill="#000000" fill-rule="nonzero" id="path2884" d="m405.902161,82.68615a2.291585,2.291585 0 1 1 -4.583191,0a2.291585,2.291585 0 1 1 4.583191,0z"/>
    <path fill="#000000" fill-rule="nonzero" id="path2886" d="m402.881165,75.996948a2.291585,2.291585 0 1 1 -4.583191,0a2.291585,2.291585 0 1 1 4.583191,0z"/>
    <path fill="#000000" fill-rule="nonzero" id="path2888" d="m398.188141,69.415749a2.291585,2.291585 0 1 1 -4.583191,0a2.291585,2.291585 0 1 1 4.583191,0z"/>
    <path fill="#000000" fill-rule="nonzero" id="path2890" d="m392.901154,64.236938a2.291585,2.291585 0 1 1 -4.583191,0a2.291585,2.291585 0 1 1 4.583191,0z"/>
    <path fill="#000000" fill-rule="nonzero" id="path2892" d="m386.320129,59.975342a2.291585,2.291585 0 1 1 -4.583191,0a2.291585,2.291585 0 1 1 4.583191,0z"/>
    <path fill="#000000" fill-rule="nonzero" id="path2894" d="m379.199158,57.062344a2.291585,2.291585 0 1 1 -4.583191,0a2.291585,2.291585 0 1 1 4.583191,0z"/>
    <path fill="#000000" fill-rule="nonzero" id="path2896" d="m371.97113,55.605743a2.291585,2.291585 0 1 1 -4.58316,0a2.291585,2.291585 0 1 1 4.58316,0z"/>
    <path fill="none" stroke="#000000" stroke-width="0.9" stroke-miterlimit="4" stroke-dashoffset="0" id="path2898" d="m397.536255,95.527328a33.184505,33.184505 0 1 1 -66.369019,0a33.184505,33.184505 0 1 1 66.369019,0z"/>
    <path fill="none" stroke="#000000" stroke-width="2.827536" stroke-miterlimit="4" stroke-dashoffset="0" id="path2900" d="m402.926117,95.757401a38.05875,38.05875 0 1 1 -76.117523,0a38.05875,38.05875 0 1 1 76.117523,0z"/>
    <path fill="none" stroke="#000000" stroke-width="0.305544px" id="path2902" d="m352.336395,64.5532l-3.433014,-2.937202l0.266998,4.463005l-3.319,-2.746399l0.266998,4.272194l-3.089996,-2.593895l0.648987,4.310394l-3.319,-1.945396l1.106018,3.814499l-4.195007,-1.106201l1.830017,3.471199l-3.928009,-0.801094l1.983002,3.547493l-4.347992,-0.610298l2.592987,3.356697l-4.118988,0l2.669983,2.288704l-4.005005,0.7248l2.746002,2.250496l-4.119995,1.258804l3.014008,2.403099l-3.509003,1.792801l3.242004,1.602097l-4.119995,2.212402l3.203979,0.610397l-3.355988,2.937103l3.738007,0.457703l-3.357025,3.204201l4.120026,0.190697l-3.548004,3.242302l4.119995,-0.076302l-3.242004,3.051598l4.539001,0.076302l-3.014008,3.127899l4.119995,-0.457703l-2.822998,4.119705l4.501007,-1.450005l-2.592987,4.730003l4.347992,-1.906998l-1.60199,5.530998l4.309998,-2.516998l-1.257996,5.569l4.462982,-2.785004l-0.800995,5.493004l3.928009,-3.128006l-0.343018,5.760002l3.891022,-3.890999l0.724976,5.608009l3.585022,-3.96801l1.029999,5.608009l3.089996,-4.539001l1.563995,5.263l2.326996,-4.958008l2.516998,5.264008l1.60199,-5.225998l2.556,4.881989l1.450012,-5.530998l3.279999,4.578011l0.687012,-5.455009l3.738007,4.157997l0.151978,-5.607002l3.96701,3.814003l-0.304993,-5.950996l4.15799,3.356995l-0.877014,-5.454994l3.891022,2.975998l-1.069,-5.760002l4.501984,2.211998l-1.60199,-5.606995l4.61499,1.831001l-2.440979,-5.035004l4.843994,1.526001l-3.279999,-4.959198l5.072998,0.457695l-3.700012,-3.8908l4.539001,-0.228798l-3.813995,-3.433098l4.806,-1.258804l-4.309998,-2.937096l4.576996,-1.182503l-4.195984,-2.174301l4.233978,-1.182495l-4.691986,-1.640205l4.15799,-2.593796l-5.110992,-0.419601l3.85199,-2.860901l-4.233978,0l4.15799,-2.899002l-5.339996,0.152603l3.432983,-3.661903l-4.958984,1.220604l3.356995,-3.776299l-4.845001,0.457695l2.213013,-4.386597l-4.578003,1.792801l1.755005,-4.997002l-4.005005,2.403099l1.143982,-5.111397l-3.96698,2.975296l0.266998,-5.569199l-3.376007,3.3759l-0.644012,-5.612l-3.937988,3.074898l-0.809998,-5.016899l-3.02002,3.830101l-0.64798,-4.693199l-2.804993,4.153702l-1.456024,-4.747101l-1.672974,4.0998l-2.104004,-4.585297l-1.402008,4.585297l-2.804993,-4.045898l-0.378021,4.315598l-3.613983,-3.614296l-0.216003,4.531395l-3.345001,-3.290596l-0.493988,4.439697l0,0z"/>
    <path fill="#000000" fill-rule="nonzero" stroke="#000000" stroke-width="0.9" stroke-miterlimit="4" stroke-dashoffset="0" id="path2904" d="m367.364899,94.687569a2.555701,2.555701 0 1 1 -5.111389,0a2.555701,2.555701 0 1 1 5.111389,0z"/>
    <path fill="#000000" fill-rule="evenodd" stroke="#000000" stroke-width="0.34863px" id="path2906" d="m363.68631,96.873596l0.81131,0.010071c0,0 -1.193115,11.455391 -4.748322,43.972473l-4.152527,-0.080597"/>
    <path fill="#000000" fill-rule="evenodd" stroke="#000000" stroke-width="0.352735px" id="path2908" d="m365.35553,96.835365l-0.830597,0.010071c0,0 1.716278,13.763573 5.286621,44.120934l3.825897,-0.233109"/>
   </g>
  </g>
  <g display="inline" id="layer2">
   <g display="inline" id="g3522">
    <g id="g3172" transform="matrix(0.205844, 0, 0, 0.205844, 657.442, -109.658)">
     <g id="g3174">
      <path fill="#0f0f0f" fill-rule="evenodd" stroke="#000000" stroke-width="0.123348" stroke-miterlimit="4" id="path3176" d="m-1639.485596,1159.750854l0,-171.896118l3.329956,0l0,-42.267944l-6.410034,0l0,-6.838989l-2.949951,0l-8.709961,-14.414063l0,-13.151978l-9.410034,-29.755981l-0.059937,-5.522949l0,5.521973l-10.210083,29.755981l0,13.151978l-8.719971,14.414063l-2.940063,0l0,6.838989l-6.409912,0l0,42.267944l3.329956,0l0,171.927124l49.160034,-0.030029l0,0z"/>
      <path fill="#ffffff" fill-rule="nonzero" id="path3178" d="m-1650.383789,965.78241a14.898274,14.898274 0 1 1 -29.796631,0a14.898274,14.898274 0 1 1 29.796631,0z"/>
     </g>
     <path fill="#0f0f0f" fill-rule="evenodd" id="path3180" d="m-1742.324585,1082.165894l80.458374,-0.233276l0,77.830322l-80.625244,0.233276l0.16687,-77.830322z"/>
    </g>
    <path fill="#0f0f0f" fill-rule="evenodd" id="path3182" d="m110.240379,82.214401l-2.347298,3.584297l-0.106903,-11.789902l-1.491898,-2.256096l-1.928596,2.183296l-0.0289,54.626305l19.3256,-6.979004l0,6.999008l0.028999,-54.391808l-1.595001,-2.6502l-1.878998,2.4701l0,11.836098l-2.264,-3.571602l-2.089005,-0.005898l-0.048996,-3.370399l-1.843002,-2.961197l-1.817001,3.033096l0.003998,3.246002l-1.918999,-0.002197l0,0.000099z"/>
    <path fill="#0e0e0e" fill-rule="evenodd" stroke="#000000" stroke-width="0.018123" stroke-miterlimit="4" id="path3184" d="m201.844604,122.574501l0,-15.563164l-1.922241,-5.38224l0,-4.357056c0,0 -3.243744,-7.93119 -3.371918,-13.441605c-0.054596,-0.200256 -0.069397,-0.206497 -0.119797,-0.0075c-0.128143,5.510391 -3.35788,13.447609 -3.35788,13.447609l0,4.35704l-1.922211,4.254189l0,16.691246"/>
    <path fill="#000000" fill-rule="evenodd" stroke="#000000" stroke-width="0.205844px" id="path3186" d="m173.978378,140.860611l-11.094254,0l0,-35.223953l1.439621,-3.257813l1.126511,3.23851l0.014694,3.33419l6.071991,0l0,-3.620438l1.195358,-2.940071l1.23288,2.996315l0.013199,35.473259z"/>
    <path fill="#000000" fill-rule="evenodd" stroke="#000000" stroke-width="0.205844px" id="path3188" d="m230.072388,140.879303l-11.094009,0l0,-35.224403l1.440002,-3.257805l1.126007,3.238503l0.014999,3.334198l6.071991,0l0,-3.620499l1.195007,-2.940102l1.233002,2.9963l0.013,35.473808l0,0z"/>
    <g display="inline" id="g3190" transform="matrix(0.205844, 0, 0, 0.205844, 61.2189, 38.3479)">
     <path fill="#000000" fill-rule="evenodd" stroke="#000000" stroke-width="1px" id="path3192" d="m255.378418,497.997406l-53.895996,0l0,-171.119019l6.993988,-15.826996l5.472,15.733002l0.072006,16.197998l29.498001,0l0,-17.588989l5.806992,-14.28299l5.989014,14.555969l0.063995,172.331024l0,0z"/>
     <path fill="#000000" fill-rule="evenodd" stroke="#000000" stroke-width="1px" id="path3194" d="m167.103989,498.01181l-53.896423,0.083282l0,-171.202881l6.993713,-15.826538l5.47258,15.732788l0.071365,16.197723l29.498062,0l0,-17.588348l5.807037,-14.28302l5.989471,14.556244l0.064194,172.33075z"/>
     <path fill="#000000" fill-rule="evenodd" stroke="#000000" stroke-width="0.234494" stroke-miterlimit="4" id="path3196" d="m175.653412,372.148407l0.16301,1.276001c1.445999,0.897003 1.600998,3.125 1.567993,3.138l-0.048996,13.526978l-3.480011,0.022003l-0.047989,-13.548981c-0.033997,-0.014008 0.121994,-2.240997 1.567993,-3.138l0.098007,-1.277008l0.179993,0.001007l0,0z"/>
     <path fill="#000000" fill-rule="evenodd" stroke="#000000" stroke-width="1.860614px" id="path3198" d="m133.834213,390.672394l102.114197,0l-2.347,106.908997l-100.553986,0.044006l0.786789,-106.953003l0,0z"/>
     <path fill="#000000" fill-rule="evenodd" stroke="#000000" stroke-width="0.234494" stroke-miterlimit="4" id="path3200" d="m194.360413,372.148407l0.16301,1.276001c1.445999,0.897003 1.600998,3.125 1.567993,3.138l-0.048996,13.526978l-3.479004,0.022003l-0.048996,-13.548981c-0.034012,-0.014008 0.121994,-2.240997 1.567993,-3.138l0.098007,-1.277008l0.179993,0.001007l0,0z"/>
    </g>
    <g display="inline" id="g3202" transform="matrix(0.205844, 0, 0, 0.205844, 61.2189, 38.3479)">
     <path fill="#000000" fill-rule="evenodd" stroke="#000000" stroke-width="1px" id="path3204" d="m1201.304443,498.041382l-53.900024,0l0,-171.118988l7,-15.826996l5.469971,15.733002l0.069946,16.197998l29.5,0l0,-17.588989l5.810059,-14.28299l5.98999,14.556976l0.060059,172.329987l0,0z"/>
     <path fill="#000000" fill-rule="evenodd" stroke="#000000" stroke-width="1px" id="path3206" d="m1113.034424,498.056396l-53.900024,0l0,-171.119995l6.98999,-15.827026l5.47998,15.733032l0.070068,16.197998l29.48999,0l0,-17.588013l5.809937,-14.28299l5.98999,14.556l0.070068,172.330994l0,0z"/>
     <path fill="#000000" fill-rule="evenodd" stroke="#000000" stroke-width="0.234494" stroke-miterlimit="4" id="path3208" d="m1121.574341,372.192383l0.170044,1.276001c1.439941,0.897003 1.599976,3.125 1.569946,3.138l-0.049927,13.528015l-3.47998,0.020996l-0.050049,-13.549011c-0.030029,-0.013977 0.119995,-2.240997 1.570068,-3.138l0.089966,-1.276978l0.179932,0.000977l0,0z"/>
     <path fill="#000000" fill-rule="evenodd" stroke="#000000" stroke-width="1.835923px" id="path3210" d="m1081.10437,390.704407l99.400024,0l-2.280029,106.93399l-97.880005,0.044006l0.76001,-106.977997l0,0z"/>
     <path fill="#000000" fill-rule="evenodd" stroke="#000000" stroke-width="0.234494" stroke-miterlimit="4" id="path3212" d="m1140.284424,372.192383l0.159912,1.276001c1.450073,0.897003 1.610107,3.125 1.570068,3.138l-0.050049,13.528015l-3.469971,0.020996l-0.050049,-13.549011c-0.039917,-0.013977 0.119995,-2.240997 1.560059,-3.138l0.099976,-1.276978l0.180054,0.000977l0,0z"/>
    </g>
    <g display="inline" id="g3214" transform="matrix(0.205844, 0, 0, 0.205844, 61.2189, 38.3479)">
     <path fill="#000000" fill-rule="evenodd" stroke="#000000" stroke-width="0.234494" stroke-miterlimit="4" id="path3216" d="m271.052429,386.467407l0.162964,1.276001c1.445007,0.897003 1.601013,3.125 1.567017,3.138l-0.047974,13.527985l-3.480042,0.020996l-0.047974,-13.548981c-0.033997,-0.014008 0.122009,-2.240997 1.567017,-3.138l0.098999,-1.277008l0.179993,0.001007l0,0z"/>
     <path fill="#000000" fill-rule="evenodd" stroke="#000000" stroke-width="0.234494" stroke-miterlimit="4" id="path3218" d="m291.582397,386.467407l0.163025,1.276001c1.445984,0.897003 1.601013,3.125 1.567993,3.138l-0.049011,13.527985l-3.479004,0.020996l-0.048981,-13.548981c-0.034027,-0.014008 0.121979,-2.240997 1.567993,-3.138l0.097992,-1.277008l0.179993,0.001007l0,0z"/>
     <path fill="#000000" fill-rule="evenodd" stroke="#000000" stroke-width="0.234494" stroke-miterlimit="4" id="path3220" d="m312.521423,386.467407l0.162994,1.276001c1.445984,0.897003 1.60199,3.125 1.567993,3.138l-0.048981,13.527985l-3.479004,0.020996l-0.049011,-13.548981c-0.03299,-0.014008 0.122009,-2.240997 1.567993,-3.138l0.097992,-1.277008l0.180023,0.001007l0,0z"/>
     <path fill="#000000" fill-rule="evenodd" stroke="#000000" stroke-width="0.234494" stroke-miterlimit="4" id="path3222" d="m333.052429,386.467407l0.162994,1.276001c1.444977,0.897003 1.600983,3.125 1.566986,3.138l-0.048004,13.527985l-3.47998,0.020996l-0.048004,-13.548981c-0.033997,-0.014008 0.122009,-2.240997 1.567993,-3.138l0.097992,-1.277008l0.180023,0.001007l0,0z"/>
     <path fill="#000000" fill-rule="evenodd" stroke="#000000" stroke-width="0.234494" stroke-miterlimit="4" id="path3224" d="m353.852417,386.823395l0.162994,1.276001c1.446014,0.897003 1.601013,3.125 1.567993,3.138l-0.048981,13.527008l-3.479004,0.022003l-0.049011,-13.549011c-0.033997,-0.014008 0.122009,-2.240997 1.567993,-3.138l0.098022,-1.277008l0.179993,0.001007l0,0z"/>
     <path fill="#000000" fill-rule="evenodd" stroke="#000000" stroke-width="0.234494" stroke-miterlimit="4" id="path3226" d="m374.382416,386.823395l0.162994,1.276001c1.446014,0.897003 1.60202,3.125 1.567993,3.138l-0.048981,13.527008l-3.479004,0.022003l-0.049011,-13.549011c-0.03299,-0.014008 0.122009,-2.240997 1.567993,-3.138l0.098022,-1.277008l0.179993,0.001007l0,0z"/>
     <path fill="#000000" fill-rule="evenodd" stroke="#000000" stroke-width="0.234494" stroke-miterlimit="4" id="path3228" d="m395.322418,386.823395l0.162994,1.276001c1.445007,0.897003 1.601013,3.125 1.567017,3.138l-0.048004,13.527008l-3.480011,0.022003l-0.048004,-13.549011c-0.033997,-0.014008 0.122009,-2.240997 1.567017,-3.138l0.098999,-1.277008l0.179993,0.001007l0,0z"/>
     <path fill="#000000" fill-rule="evenodd" stroke="#000000" stroke-width="0.234494" stroke-miterlimit="4" id="path3230" d="m415.852417,386.823395l0.162994,1.276001c1.446014,0.897003 1.601013,3.125 1.567993,3.138l-0.048981,13.527008l-3.479004,0.022003l-0.049011,-13.549011c-0.033997,-0.014008 0.122009,-2.240997 1.567993,-3.138l0.098022,-1.277008l0.179993,0.001007l0,0z"/>
     <path fill="#000000" fill-rule="evenodd" stroke="#000000" stroke-width="0.234494" stroke-miterlimit="4" id="path3232" d="m437.656403,386.116394l0.163025,1.276001c1.445984,0.897003 1.60199,3.125 1.567993,3.138l-0.049011,13.527008l-3.479004,0.022003l-0.048981,-13.549011c-0.03302,-0.014008 0.121979,-2.240997 1.567993,-3.138l0.097992,-1.277008l0.179993,0.001007l0,0z"/>
     <path fill="#000000" fill-rule="evenodd" stroke="#000000" stroke-width="0.234494" stroke-miterlimit="4" id="path3234" d="m458.596405,386.116394l0.162018,1.276001c1.445984,0.897003 1.60199,3.125 1.567993,3.138l-0.048004,13.527008l-3.480011,0.022003l-0.047974,-13.549011c-0.034027,-0.014008 0.121979,-2.240997 1.566986,-3.138l0.098999,-1.277008l0.179993,0.001007l0,0z"/>
     <path fill="#000000" fill-rule="evenodd" stroke="#000000" stroke-width="0.234494" stroke-miterlimit="4" id="path3236" d="m479.126404,386.116394l0.163025,1.276001c1.445984,0.897003 1.600983,3.125 1.567993,3.138l-0.049011,13.527008l-3.479004,0.022003l-0.048981,-13.549011c-0.033997,-0.014008 0.121979,-2.240997 1.567993,-3.138l0.097992,-1.277008l0.179993,0.001007l0,0z"/>
     <path fill="#000000" fill-rule="evenodd" stroke="#000000" stroke-width="1.149798px" id="path3238" d="m216.727417,403.950409l315.973999,0l0,93.985992l-317.132004,0.07901l1.158005,-94.065002l0,0z"/>
    </g>
    <g display="inline" id="g3240" transform="matrix(0.205844, 0, 0, 0.205844, 61.2189, 38.3479)">
     <path fill="#000000" fill-rule="evenodd" stroke="#000000" stroke-width="0.235952" stroke-miterlimit="4" id="path3242" d="m834.358398,386.555389l0.165039,1.277008c1.463989,0.897003 1.620972,3.123993 1.587036,3.138l-0.049072,13.527008l-3.522949,0.022003l-0.049072,-13.550018c-0.033936,-0.013 0.123047,-2.240997 1.587036,-3.138l0.099976,-1.276001l0.182007,0l0,0z"/>
     <path fill="#000000" fill-rule="evenodd" stroke="#000000" stroke-width="0.235952" stroke-miterlimit="4" id="path3244" d="m855.144775,386.555511l0.164795,1.276672c1.463867,0.897064 1.621582,3.124329 1.587402,3.13797l-0.049072,13.527161l-3.523071,0.021606l-0.049072,-13.549225c-0.03418,-0.013611 0.123535,-2.240906 1.587402,-3.13797l0.099365,-1.276672l0.182251,0.000458z"/>
     <path fill="#000000" fill-rule="evenodd" stroke="#000000" stroke-width="0.235952" stroke-miterlimit="4" id="path3246" d="m876.345459,386.555389l0.164917,1.277008c1.463989,0.897003 1.621094,3.123993 1.587036,3.138l-0.04895,13.527008l-3.523071,0.022003l-0.04895,-13.550018c-0.034058,-0.013 0.122925,-2.240997 1.586914,-3.138l0.100098,-1.276001l0.182007,0l0,0z"/>
     <path fill="#000000" fill-rule="evenodd" stroke="#000000" stroke-width="0.235952" stroke-miterlimit="4" id="path3248" d="m897.13147,386.555389l0.164917,1.277008c1.463989,0.897003 1.62207,3.123993 1.588013,3.138l-0.049927,13.527008l-3.523071,0.022003l-0.04895,-13.550018c-0.034058,-0.013 0.124023,-2.240997 1.588013,-3.138l0.098999,-1.276001l0.182007,0l0,0z"/>
     <path fill="#000000" fill-rule="evenodd" stroke="#000000" stroke-width="0.235952" stroke-miterlimit="4" id="path3250" d="m918.191406,386.911407l0.165039,1.276978c1.463989,0.897003 1.620972,3.124023 1.586914,3.138l-0.04895,13.527008l-3.522949,0.020996l-0.049072,-13.548981c-0.033936,-0.013 0.124023,-2.240997 1.587036,-3.138l0.099976,-1.276001l0.182007,0l0,0z"/>
     <path fill="#000000" fill-rule="evenodd" stroke="#000000" stroke-width="0.235952" stroke-miterlimit="4" id="path3252" d="m938.978394,386.911407l0.164063,1.276978c1.463989,0.897003 1.621948,3.124023 1.588013,3.138l-0.049072,13.527008l-3.522949,0.020996l-0.049072,-13.548981c-0.034912,-0.013 0.123047,-2.240997 1.587036,-3.138l0.098999,-1.276001l0.182983,0l0,0z"/>
     <path fill="#000000" fill-rule="evenodd" stroke="#000000" stroke-width="0.235952" stroke-miterlimit="4" id="path3254" d="m960.178467,386.911407l0.164917,1.276978c1.463989,0.897003 1.620972,3.124023 1.587036,3.138l-0.04895,13.527008l-3.523071,0.020996l-0.04895,-13.548981c-0.034058,-0.013 0.124023,-2.240997 1.586914,-3.138l0.100098,-1.276001l0.182007,0l0,0z"/>
     <path fill="#000000" fill-rule="evenodd" stroke="#000000" stroke-width="0.235952" stroke-miterlimit="4" id="path3256" d="m980.965454,386.911407l0.16394,1.276978c1.463989,0.897003 1.62207,3.124023 1.588013,3.138l-0.04895,13.527008l-3.523071,0.020996l-0.04895,-13.548981c-0.035034,-0.013 0.122925,-2.240997 1.587036,-3.138l0.098999,-1.276001l0.182983,0l0,0z"/>
     <path fill="#000000" fill-rule="evenodd" stroke="#000000" stroke-width="0.235952" stroke-miterlimit="4" id="path3258" d="m1003.041382,386.204407l0.165039,1.276978c1.463989,0.897003 1.620972,3.124023 1.587036,3.138l-0.049072,13.527008l-3.522949,0.020996l-0.049072,-13.548981c-0.033936,-0.013 0.123047,-2.240997 1.587036,-3.138l0.099976,-1.277008l0.182007,0.001007l0,0z"/>
     <path fill="#000000" fill-rule="evenodd" stroke="#000000" stroke-width="0.235952" stroke-miterlimit="4" id="path3260" d="m1024.241455,386.204407l0.164917,1.276978c1.463989,0.897003 1.62207,3.124023 1.588013,3.138l-0.049927,13.527008l-3.523071,0.020996l-0.04895,-13.548981c-0.034058,-0.013 0.124023,-2.240997 1.588013,-3.138l0.098999,-1.277008l0.182007,0.001007l0,0z"/>
     <path fill="#000000" fill-rule="evenodd" stroke="#000000" stroke-width="0.235952" stroke-miterlimit="4" id="path3262" d="m1045.024414,386.204407l0.170044,1.276978c1.459961,0.897003 1.619995,3.124023 1.589966,3.138l-0.050049,13.527008l-3.529907,0.020996l-0.050049,-13.548981c-0.030029,-0.013 0.130005,-2.240997 1.589966,-3.138l0.099976,-1.277008l0.180054,0.001007l0,0z"/>
     <path fill="#000000" fill-rule="evenodd" stroke="#000000" stroke-width="1.139915px" id="path3264" d="m784.040649,404.03064l310.511597,0l0,94.002716l-311.650269,0l1.138672,-94.002716z"/>
    </g>
    <g display="inline" id="g3266" transform="matrix(0.205844, 0, 0, 0.205844, 61.2189, 38.3479)">
     <path fill="#000000" fill-rule="evenodd" stroke="#000000" stroke-width="0.234494" stroke-miterlimit="4" id="path3268" d="m560.552124,373.893921l0.162842,1.276672c1.445801,0.897064 1.601563,3.124329 1.567749,3.13797l-0.048462,13.527161l-3.479614,0.021606l-0.048462,-13.549225c-0.033813,-0.013611 0.121948,-2.240906 1.567749,-3.13797l0.098145,-1.276672l0.180054,0.000458z"/>
     <path fill="#000000" fill-rule="evenodd" stroke="#000000" stroke-width="0.234494" stroke-miterlimit="4" id="path3271" d="m582.052124,373.834778l0.162842,1.276672c1.445801,0.897064 1.601563,3.124359 1.567749,3.13797l-0.048462,13.527161l-3.479614,0.021606l-0.048462,-13.549225c-0.033813,-0.013611 0.121948,-2.240906 1.567749,-3.13797l0.098145,-1.276672l0.180054,0.000458z"/>
     <path fill="#000000" fill-rule="evenodd" stroke="#000000" stroke-width="0.234494" stroke-miterlimit="4" id="path3273" d="m603.052124,373.834778l0.162842,1.276672c1.445801,0.897064 1.601563,3.124359 1.567749,3.13797l-0.048462,13.527161l-3.479614,0.021606l-0.048462,-13.549225c-0.033813,-0.013611 0.121948,-2.240906 1.567749,-3.13797l0.098145,-1.276672l0.180054,0.000458z"/>
     <path fill="#000000" fill-rule="evenodd" stroke="#000000" stroke-width="0.234494" stroke-miterlimit="4" id="path3275" d="m624.552124,373.834778l0.162842,1.276672c1.445801,0.897064 1.601563,3.124359 1.567749,3.13797l-0.048462,13.527161l-3.479614,0.021606l-0.048462,-13.549225c-0.033813,-0.013611 0.121948,-2.240906 1.567749,-3.13797l0.098145,-1.276672l0.180054,0.000458z"/>
     <path fill="#000000" fill-rule="evenodd" stroke="#000000" stroke-width="0.234494" stroke-miterlimit="4" id="path3277" d="m645.683105,373.834778l0.16272,1.276672c1.445923,0.897064 1.601563,3.124359 1.567871,3.13797l-0.048584,13.527161l-3.479492,0.021606l-0.048584,-13.549225c-0.033813,-0.013611 0.121948,-2.240906 1.567749,-3.13797l0.098267,-1.276672l0.180054,0.000458z"/>
     <path fill="#000000" fill-rule="evenodd" stroke="#000000" stroke-width="0.234494" stroke-miterlimit="4" id="path3279" d="m666.808105,373.834778l0.16272,1.276672c1.445923,0.897064 1.601563,3.124359 1.567871,3.13797l-0.048584,13.527161l-3.479492,0.021606l-0.048584,-13.549225c-0.033813,-0.013611 0.121948,-2.240906 1.567749,-3.13797l0.098267,-1.276672l0.180054,0.000458z"/>
     <path fill="#000000" fill-rule="evenodd" stroke="#000000" stroke-width="0.234494" stroke-miterlimit="4" id="path3281" d="m687.433105,373.834778l0.16272,1.276672c1.445923,0.897064 1.601563,3.124359 1.567871,3.13797l-0.048584,13.527161l-3.479492,0.021606l-0.048584,-13.549225c-0.033813,-0.013611 0.121948,-2.240906 1.567749,-3.13797l0.098267,-1.276672l0.180054,0.000458z"/>
     <path fill="#000000" fill-rule="evenodd" stroke="#000000" stroke-width="0.234494" stroke-miterlimit="4" id="path3283" d="m708.683105,373.834778l0.16272,1.276672c1.445923,0.897064 1.601563,3.124359 1.567871,3.13797l-0.048584,13.527161l-3.479492,0.021606l-0.048584,-13.549225c-0.033813,-0.013611 0.121948,-2.240906 1.567749,-3.13797l0.098267,-1.276672l0.180054,0.000458z"/>
     <path fill="#000000" fill-rule="evenodd" stroke="#000000" stroke-width="0.234494" stroke-miterlimit="4" id="path3285" d="m730.052124,373.834778l0.162842,1.276672c1.445801,0.897064 1.601563,3.124359 1.567749,3.13797l-0.048462,13.527161l-3.479614,0.021606l-0.048462,-13.549225c-0.033813,-0.013611 0.121948,-2.240906 1.567749,-3.13797l0.098145,-1.276672l0.180054,0.000458z"/>
     <path fill="#000000" fill-rule="evenodd" stroke="#000000" stroke-width="0.234494" stroke-miterlimit="4" id="path3287" d="m751.552124,373.834778l0.162842,1.276672c1.445801,0.897064 1.601563,3.124359 1.567749,3.13797l-0.048462,13.527161l-3.479614,0.021606l-0.048462,-13.549225c-0.033813,-0.013611 0.121948,-2.240906 1.567749,-3.13797l0.098145,-1.276672l0.180054,0.000458z"/>
     <path fill="#000000" fill-rule="evenodd" stroke="#000000" stroke-width="1.156204px" id="path3289" d="m510.625305,391.993561l293.582458,0l0,105.983032l-294.884125,0l1.301666,-105.983032z"/>
    </g>
   </g>
  </g>
 </g>
</svg>